<svg width="300" height="201" viewBox="0 0 300 201" fill="none" xmlns="http://www.w3.org/2000/svg">
<rect y="0.330078" width="300" height="200" rx="8" fill="#19161C"/>
<path d="M107.372 102.46H101.641V82.8333H94.9485V79.0258C96.7149 78.9473 97.9514 78.8295 98.6579 78.6725C99.7832 78.4239 100.699 77.9267 101.406 77.1809C101.89 76.6706 102.256 75.9902 102.505 75.1397C102.649 74.6294 102.721 74.25 102.721 74.0014H107.372V102.46ZM126.548 102.46H120.817V82.8333H114.125V79.0258C115.891 78.9473 117.128 78.8295 117.834 78.6725C118.959 78.4239 119.875 77.9267 120.582 77.1809C121.066 76.6706 121.432 75.9902 121.681 75.1397C121.825 74.6294 121.897 74.25 121.897 74.0014H126.548V102.46ZM140.72 104.462C140.484 105.43 140.046 106.268 139.405 106.974C138.711 107.733 137.893 108.302 136.951 108.682C136.022 109.074 135.381 109.27 135.028 109.27V107.111C136.153 106.797 136.978 106.274 137.501 105.541C138.037 104.809 138.345 103.781 138.423 102.46H135.028V96.6112H141.073V101.675C141.073 102.565 140.955 103.494 140.72 104.462ZM153.969 103.167C150.344 103.167 147.799 101.897 146.334 99.359C144.881 96.8206 144.155 93.2027 144.155 88.5054C144.155 83.8081 144.881 80.1838 146.334 77.6323C147.799 75.0808 150.344 73.8051 153.969 73.8051C157.593 73.8051 160.138 75.0808 161.603 77.6323C163.056 80.1838 163.782 83.8081 163.782 88.5054C163.782 93.2027 163.049 96.8206 161.584 99.359C160.131 101.897 157.593 103.167 153.969 103.167ZM157.246 96.0028C157.757 94.2757 158.012 91.7765 158.012 88.5054C158.012 85.0773 157.75 82.5389 157.227 80.8903C156.716 79.2417 155.63 78.4174 153.969 78.4174C152.307 78.4174 151.208 79.2417 150.671 80.8903C150.135 82.5389 149.867 85.0773 149.867 88.5054C149.867 91.7765 150.135 94.2822 150.671 96.0224C151.208 97.7496 152.307 98.6131 153.969 98.6131C155.63 98.6131 156.723 97.743 157.246 96.0028ZM175.343 103.167C171.719 103.167 169.174 101.897 167.708 99.359C166.256 96.8206 165.53 93.2027 165.53 88.5054C165.53 83.8081 166.256 80.1838 167.708 77.6323C169.174 75.0808 171.719 73.8051 175.343 73.8051C178.967 73.8051 181.512 75.0808 182.978 77.6323C184.43 80.1838 185.156 83.8081 185.156 88.5054C185.156 93.2027 184.424 96.8206 182.958 99.359C181.506 101.897 178.967 103.167 175.343 103.167ZM178.621 96.0028C179.131 94.2757 179.386 91.7765 179.386 88.5054C179.386 85.0773 179.124 82.5389 178.601 80.8903C178.091 79.2417 177.005 78.4174 175.343 78.4174C173.681 78.4174 172.582 79.2417 172.046 80.8903C171.509 82.5389 171.241 85.0773 171.241 88.5054C171.241 91.7765 171.509 94.2822 172.046 96.0224C172.582 97.7496 173.681 98.6131 175.343 98.6131C177.005 98.6131 178.097 97.743 178.621 96.0028ZM196.717 103.167C193.093 103.167 190.548 101.897 189.083 99.359C187.63 96.8206 186.904 93.2027 186.904 88.5054C186.904 83.8081 187.63 80.1838 189.083 77.6323C190.548 75.0808 193.093 73.8051 196.717 73.8051C200.342 73.8051 202.887 75.0808 204.352 77.6323C205.804 80.1838 206.531 83.8081 206.531 88.5054C206.531 93.2027 205.798 96.8206 204.332 99.359C202.88 101.897 200.342 103.167 196.717 103.167ZM199.995 96.0028C200.505 94.2757 200.76 91.7765 200.76 88.5054C200.76 85.0773 200.499 82.5389 199.975 80.8903C199.465 79.2417 198.379 78.4174 196.717 78.4174C195.056 78.4174 193.956 79.2417 193.42 80.8903C192.884 82.5389 192.615 85.0773 192.615 88.5054C192.615 91.7765 192.884 94.2822 193.42 96.0224C193.956 97.7496 195.056 98.6131 196.717 98.6131C198.379 98.6131 199.472 97.743 199.995 96.0028Z" fill="#F087FF"/>
<path d="M28.8366 128.177C28.8651 128.686 28.9851 129.099 29.1967 129.416C29.5995 130.01 30.3096 130.307 31.3268 130.307C31.7826 130.307 32.1976 130.242 32.572 130.112C33.2962 129.86 33.6584 129.408 33.6584 128.757C33.6584 128.269 33.5058 127.921 33.2006 127.713C32.8914 127.51 32.4072 127.333 31.748 127.182L30.5334 126.908C29.7399 126.729 29.1784 126.531 28.8488 126.316C28.2791 125.941 27.9943 125.382 27.9943 124.637C27.9943 123.832 28.273 123.17 28.8305 122.654C29.388 122.137 30.1773 121.878 31.1987 121.878C32.1386 121.878 32.9361 122.106 33.5912 122.562C34.2504 123.014 34.58 123.738 34.58 124.735H33.4387C33.3776 124.255 33.2474 123.886 33.048 123.63C32.6777 123.162 32.0491 122.928 31.162 122.928C30.4459 122.928 29.9312 123.079 29.6179 123.38C29.3045 123.681 29.1479 124.031 29.1479 124.43C29.1479 124.869 29.331 125.191 29.6972 125.394C29.9373 125.524 30.4805 125.687 31.3268 125.882L32.5842 126.169C33.1904 126.308 33.6584 126.497 33.988 126.737C34.5576 127.156 34.8425 127.764 34.8425 128.562C34.8425 129.555 34.4803 130.265 33.756 130.692C33.0358 131.119 32.1976 131.333 31.2414 131.333C30.1265 131.333 29.2537 131.048 28.623 130.478C27.9923 129.913 27.683 129.146 27.6952 128.177H28.8366ZM40.2502 121.86C41.833 121.86 43.0049 122.369 43.7658 123.386C44.3599 124.179 44.6569 125.195 44.6569 126.432C44.6569 127.77 44.3172 128.883 43.6376 129.77C42.8401 130.812 41.7028 131.333 40.2258 131.333C38.8464 131.333 37.762 130.877 36.9726 129.966C36.2686 129.087 35.9167 127.976 35.9167 126.633C35.9167 125.42 36.2178 124.383 36.82 123.52C37.5931 122.413 38.7365 121.86 40.2502 121.86ZM40.3722 130.246C41.4424 130.246 42.2155 129.864 42.6916 129.099C43.1717 128.33 43.4118 127.447 43.4118 126.45C43.4118 125.396 43.1351 124.548 42.5817 123.905C42.0324 123.262 41.2796 122.94 40.3234 122.94C39.3957 122.94 38.6388 123.26 38.0529 123.899C37.467 124.533 37.174 125.471 37.174 126.712C37.174 127.705 37.4242 128.543 37.9247 129.227C38.4293 129.907 39.2451 130.246 40.3722 130.246ZM46.1096 122.104H47.3242V130.002H51.8652V131.07H46.1096V122.104ZM57.6696 127.396L56.3085 123.435L54.862 127.396H57.6696ZM55.6738 122.104H57.0471L60.3002 131.07H58.9697L58.0602 128.385H54.5141L53.5436 131.07H52.2985L55.6738 122.104ZM61.405 122.104H62.8393L67.3681 129.367V122.104H68.5217V131.07H67.1606L62.5646 123.813V131.07H61.405V122.104ZM75.0402 127.396L73.6791 123.435L72.2326 127.396H75.0402ZM73.0444 122.104H74.4177L77.6708 131.07H76.3403L75.4308 128.385H71.8847L70.9142 131.07H69.6691L73.0444 122.104ZM81.6015 122.104H82.8283V125.809H87.4914V122.104H88.7182V131.07H87.4914V126.877H82.8283V131.07H81.6015V122.104ZM95.2062 127.396L93.8451 123.435L92.3986 127.396H95.2062ZM93.2104 122.104H94.5837L97.8368 131.07H96.5063L95.5969 128.385H92.0507L91.0803 131.07H89.8351L93.2104 122.104ZM102.72 121.86C103.855 121.86 104.736 122.159 105.362 122.757C105.989 123.355 106.337 124.035 106.406 124.796H105.222C105.088 124.218 104.819 123.76 104.416 123.423C104.018 123.085 103.456 122.916 102.732 122.916C101.849 122.916 101.135 123.227 100.59 123.85C100.048 124.468 99.7778 125.418 99.7778 126.7C99.7778 127.75 100.022 128.602 100.51 129.258C101.003 129.909 101.735 130.234 102.707 130.234C103.603 130.234 104.284 129.89 104.752 129.203C105 128.84 105.185 128.364 105.308 127.774H106.492C106.386 128.718 106.036 129.51 105.442 130.149C104.73 130.918 103.769 131.302 102.561 131.302C101.519 131.302 100.644 130.987 99.9365 130.356C99.0047 129.522 98.5387 128.234 98.5387 126.493C98.5387 125.17 98.8887 124.086 99.5886 123.24C100.345 122.32 101.389 121.86 102.72 121.86ZM107.975 122.104H109.159V126.474L113.529 122.104H115.207L111.478 125.718L115.311 131.07H113.73L110.593 126.572L109.159 127.945V131.07H107.975V122.104ZM116.428 122.104H122.965V123.203H117.612V125.925H122.562V126.963H117.612V130.002H123.057V131.07H116.428V122.104ZM128.818 126.212C129.388 126.212 129.838 126.098 130.167 125.87C130.501 125.642 130.668 125.231 130.668 124.637C130.668 123.998 130.436 123.563 129.972 123.331C129.724 123.209 129.392 123.148 128.977 123.148H126.011V126.212H128.818ZM124.796 122.104H128.946C129.63 122.104 130.194 122.204 130.637 122.403C131.479 122.786 131.901 123.492 131.901 124.521C131.901 125.058 131.789 125.498 131.565 125.84C131.345 126.181 131.036 126.456 130.637 126.664C130.987 126.806 131.25 126.993 131.424 127.225C131.604 127.457 131.703 127.833 131.724 128.354L131.766 129.557C131.778 129.898 131.807 130.153 131.852 130.32C131.925 130.604 132.055 130.788 132.242 130.869V131.07H130.753C130.712 130.993 130.68 130.893 130.655 130.771C130.631 130.649 130.611 130.413 130.594 130.063L130.521 128.568C130.493 127.982 130.275 127.589 129.868 127.39C129.636 127.28 129.272 127.225 128.776 127.225H126.011V131.07H124.796V122.104ZM137.192 122.104H138.419V125.809H143.082V122.104H144.309V131.07H143.082V126.877H138.419V131.07H137.192V122.104ZM150.065 121.86C151.647 121.86 152.819 122.369 153.58 123.386C154.174 124.179 154.471 125.195 154.471 126.432C154.471 127.77 154.132 128.883 153.452 129.77C152.655 130.812 151.517 131.333 150.04 131.333C148.661 131.333 147.576 130.877 146.787 129.966C146.083 129.087 145.731 127.976 145.731 126.633C145.731 125.42 146.032 124.383 146.634 123.52C147.408 122.413 148.551 121.86 150.065 121.86ZM150.187 130.246C151.257 130.246 152.03 129.864 152.506 129.099C152.986 128.33 153.226 127.447 153.226 126.45C153.226 125.396 152.95 124.548 152.396 123.905C151.847 123.262 151.094 122.94 150.138 122.94C149.21 122.94 148.453 123.26 147.867 123.899C147.281 124.533 146.988 125.471 146.988 126.712C146.988 127.705 147.239 128.543 147.739 129.227C148.244 129.907 149.06 130.246 150.187 130.246ZM157.242 122.104V127.646C157.242 128.297 157.364 128.838 157.609 129.27C157.971 129.921 158.581 130.246 159.44 130.246C160.469 130.246 161.169 129.894 161.539 129.19C161.739 128.808 161.838 128.293 161.838 127.646V122.104H163.071V127.14C163.071 128.242 162.923 129.091 162.626 129.685C162.08 130.767 161.051 131.308 159.537 131.308C158.024 131.308 156.996 130.767 156.455 129.685C156.158 129.091 156.009 128.242 156.009 127.14V122.104H157.242ZM165.751 128.177C165.779 128.686 165.899 129.099 166.111 129.416C166.514 130.01 167.224 130.307 168.241 130.307C168.697 130.307 169.112 130.242 169.486 130.112C170.21 129.86 170.572 129.408 170.572 128.757C170.572 128.269 170.42 127.921 170.115 127.713C169.805 127.51 169.321 127.333 168.662 127.182L167.447 126.908C166.654 126.729 166.092 126.531 165.763 126.316C165.193 125.941 164.908 125.382 164.908 124.637C164.908 123.832 165.187 123.17 165.745 122.654C166.302 122.137 167.091 121.878 168.113 121.878C169.053 121.878 169.85 122.106 170.505 122.562C171.164 123.014 171.494 123.738 171.494 124.735H170.353C170.292 124.255 170.161 123.886 169.962 123.63C169.592 123.162 168.963 122.928 168.076 122.928C167.36 122.928 166.845 123.079 166.532 123.38C166.219 123.681 166.062 124.031 166.062 124.43C166.062 124.869 166.245 125.191 166.611 125.394C166.851 125.524 167.395 125.687 168.241 125.882L169.498 126.169C170.105 126.308 170.572 126.497 170.902 126.737C171.472 127.156 171.757 127.764 171.757 128.562C171.757 129.555 171.394 130.265 170.67 130.692C169.95 131.119 169.112 131.333 168.155 131.333C167.041 131.333 166.168 131.048 165.537 130.478C164.906 129.913 164.597 129.146 164.609 128.177H165.751ZM173.411 122.104H179.947V123.203H174.595V125.925H179.545V126.963H174.595V130.002H180.039V131.07H173.411V122.104ZM185.227 122.104H189.261C190.059 122.104 190.702 122.33 191.19 122.782C191.678 123.229 191.923 123.86 191.923 124.674C191.923 125.374 191.705 125.984 191.269 126.505C190.834 127.022 190.165 127.28 189.261 127.28H186.442V131.07H185.227V122.104ZM190.696 124.68C190.696 124.021 190.452 123.573 189.963 123.337C189.695 123.211 189.327 123.148 188.859 123.148H186.442V126.255H188.859C189.404 126.255 189.845 126.139 190.183 125.907C190.525 125.675 190.696 125.266 190.696 124.68ZM197.123 127.396L195.762 123.435L194.315 127.396H197.123ZM195.127 122.104H196.5L199.753 131.07H198.423L197.513 128.385H193.967L192.997 131.07H191.752L195.127 122.104ZM205.027 126.212C205.596 126.212 206.046 126.098 206.376 125.87C206.709 125.642 206.876 125.231 206.876 124.637C206.876 123.998 206.644 123.563 206.18 123.331C205.932 123.209 205.601 123.148 205.185 123.148H202.219V126.212H205.027ZM201.005 122.104H205.155C205.839 122.104 206.402 122.204 206.846 122.403C207.688 122.786 208.109 123.492 208.109 124.521C208.109 125.058 207.997 125.498 207.773 125.84C207.554 126.181 207.244 126.456 206.846 126.664C207.196 126.806 207.458 126.993 207.633 127.225C207.812 127.457 207.912 127.833 207.932 128.354L207.975 129.557C207.987 129.898 208.015 130.153 208.06 130.32C208.133 130.604 208.264 130.788 208.451 130.869V131.07H206.962C206.921 130.993 206.888 130.893 206.864 130.771C206.84 130.649 206.819 130.413 206.803 130.063L206.73 128.568C206.701 127.982 206.484 127.589 206.077 127.39C205.845 127.28 205.48 127.225 204.984 127.225H202.219V131.07H201.005V122.104ZM216.196 122.104V123.172H213.175V131.07H211.942V123.172H208.921V122.104H216.196ZM217.588 122.104H218.815V131.07H217.588V122.104ZM224.57 121.86C225.706 121.86 226.586 122.159 227.213 122.757C227.84 123.355 228.188 124.035 228.257 124.796H227.073C226.938 124.218 226.67 123.76 226.267 123.423C225.868 123.085 225.307 122.916 224.582 122.916C223.699 122.916 222.985 123.227 222.44 123.85C221.899 124.468 221.628 125.418 221.628 126.7C221.628 127.75 221.872 128.602 222.361 129.258C222.853 129.909 223.586 130.234 224.558 130.234C225.453 130.234 226.135 129.89 226.603 129.203C226.851 128.84 227.036 128.364 227.158 127.774H228.342C228.236 128.718 227.886 129.51 227.292 130.149C226.58 130.918 225.62 131.302 224.412 131.302C223.37 131.302 222.495 130.987 221.787 130.356C220.855 129.522 220.389 128.234 220.389 126.493C220.389 125.17 220.739 124.086 221.439 123.24C222.196 122.32 223.24 121.86 224.57 121.86ZM230.1 122.104H231.327V131.07H230.1V122.104ZM233.42 122.104H237.455C238.252 122.104 238.895 122.33 239.383 122.782C239.872 123.229 240.116 123.86 240.116 124.674C240.116 125.374 239.898 125.984 239.463 126.505C239.027 127.022 238.358 127.28 237.455 127.28H234.635V131.07H233.42V122.104ZM238.889 124.68C238.889 124.021 238.645 123.573 238.157 123.337C237.888 123.211 237.52 123.148 237.052 123.148H234.635V126.255H237.052C237.597 126.255 238.039 126.139 238.376 125.907C238.718 125.675 238.889 125.266 238.889 124.68ZM245.316 127.396L243.955 123.435L242.508 127.396H245.316ZM243.32 122.104H244.694L247.947 131.07H246.616L245.707 128.385H242.161L241.19 131.07H239.945L243.32 122.104ZM249.051 122.104H250.486L255.015 129.367V122.104H256.168V131.07H254.807L250.211 123.813V131.07H249.051V122.104ZM264.609 122.104V123.172H261.588V131.07H260.355V123.172H257.334V122.104H264.609ZM266.52 128.177C266.548 128.686 266.668 129.099 266.88 129.416C267.283 130.01 267.993 130.307 269.01 130.307C269.466 130.307 269.881 130.242 270.255 130.112C270.979 129.86 271.341 129.408 271.341 128.757C271.341 128.269 271.189 127.921 270.884 127.713C270.574 127.51 270.09 127.333 269.431 127.182L268.216 126.908C267.423 126.729 266.862 126.531 266.532 126.316C265.962 125.941 265.677 125.382 265.677 124.637C265.677 123.832 265.956 123.17 266.514 122.654C267.071 122.137 267.86 121.878 268.882 121.878C269.822 121.878 270.619 122.106 271.274 122.562C271.934 123.014 272.263 123.738 272.263 124.735H271.122C271.061 124.255 270.931 123.886 270.731 123.63C270.361 123.162 269.732 122.928 268.845 122.928C268.129 122.928 267.614 123.079 267.301 123.38C266.988 123.681 266.831 124.031 266.831 124.43C266.831 124.869 267.014 125.191 267.38 125.394C267.62 125.524 268.164 125.687 269.01 125.882L270.267 126.169C270.874 126.308 271.341 126.497 271.671 126.737C272.241 127.156 272.526 127.764 272.526 128.562C272.526 129.555 272.163 130.265 271.439 130.692C270.719 131.119 269.881 131.333 268.924 131.333C267.81 131.333 266.937 131.048 266.306 130.478C265.675 129.913 265.366 129.146 265.378 128.177H266.52Z" fill="#BABABA"/>
</svg>
