<svg width="300" height="201" viewBox="0 0 300 201" fill="none" xmlns="http://www.w3.org/2000/svg">
<rect y="0.330078" width="300" height="200" rx="8" fill="#19161C"/>
<path d="M110.263 84.8184V89.3916H106.9V95.79H101.178V89.3916H89.4067V84.2852L100.337 66.2383H106.9V84.8184H110.263ZM93.7338 84.8184H101.178V71.9805L93.7338 84.8184ZM114.349 93.9238C112.64 92.1738 111.786 90.0479 111.786 87.5459C111.786 85.8779 112.162 84.3672 112.914 83.0137C113.679 81.6602 114.793 80.6416 116.256 79.958C114.821 79.001 113.884 77.9688 113.447 76.8613C113.023 75.7402 112.811 74.6943 112.811 73.7236C112.811 71.5635 113.624 69.7246 115.251 68.207C116.878 66.6758 119.175 65.9102 122.142 65.9102C125.109 65.9102 127.406 66.6758 129.033 68.207C130.66 69.7246 131.473 71.5635 131.473 73.7236C131.473 74.6943 131.254 75.7402 130.817 76.8613C130.393 77.9688 129.463 78.9326 128.028 79.7529C129.491 80.5732 130.591 81.6602 131.33 83.0137C132.068 84.3672 132.437 85.8779 132.437 87.5459C132.437 90.0479 131.507 92.1807 129.648 93.9443C127.802 95.6943 125.218 96.5693 121.896 96.5693C118.574 96.5693 116.058 95.6875 114.349 93.9238ZM117.856 87.1562C117.856 88.6191 118.232 89.7539 118.984 90.5605C119.749 91.3672 120.802 91.7705 122.142 91.7705C123.482 91.7705 124.528 91.3672 125.28 90.5605C126.045 89.7539 126.428 88.6191 126.428 87.1562C126.428 85.6387 126.039 84.4902 125.259 83.7109C124.494 82.918 123.455 82.5215 122.142 82.5215C120.83 82.5215 119.784 82.918 119.004 83.7109C118.239 84.4902 117.856 85.6387 117.856 87.1562ZM119.394 77.0254C120.05 77.709 120.966 78.0508 122.142 78.0508C123.331 78.0508 124.247 77.709 124.89 77.0254C125.546 76.3418 125.874 75.46 125.874 74.3799C125.874 73.2041 125.546 72.2881 124.89 71.6318C124.247 70.9619 123.331 70.627 122.142 70.627C120.966 70.627 120.043 70.9619 119.373 71.6318C118.717 72.2881 118.389 73.2041 118.389 74.3799C118.389 75.46 118.724 76.3418 119.394 77.0254ZM141.424 97.8818C141.178 98.8936 140.72 99.7686 140.05 100.507C139.326 101.3 138.471 101.895 137.487 102.291C136.516 102.701 135.846 102.906 135.477 102.906V100.65C136.653 100.322 137.514 99.7754 138.061 99.0098C138.622 98.2441 138.943 97.1709 139.025 95.79H135.477V89.6787H141.793V94.9697C141.793 95.8994 141.67 96.8701 141.424 97.8818ZM155.313 96.5283C151.526 96.5283 148.867 95.2021 147.335 92.5498C145.818 89.8975 145.059 86.1172 145.059 81.209C145.059 76.3008 145.818 72.5137 147.335 69.8477C148.867 67.1816 151.526 65.8486 155.313 65.8486C159.1 65.8486 161.759 67.1816 163.29 69.8477C164.808 72.5137 165.567 76.3008 165.567 81.209C165.567 86.1172 164.801 89.8975 163.27 92.5498C161.752 95.2021 159.1 96.5283 155.313 96.5283ZM158.738 89.043C159.271 87.2383 159.538 84.627 159.538 81.209C159.538 77.627 159.264 74.9746 158.717 73.252C158.184 71.5293 157.049 70.668 155.313 70.668C153.577 70.668 152.428 71.5293 151.868 73.252C151.307 74.9746 151.027 77.627 151.027 81.209C151.027 84.627 151.307 87.2451 151.868 89.0635C152.428 90.8682 153.577 91.7705 155.313 91.7705C157.049 91.7705 158.191 90.8613 158.738 89.043ZM177.692 96.5283C173.905 96.5283 171.246 95.2021 169.714 92.5498C168.197 89.8975 167.438 86.1172 167.438 81.209C167.438 76.3008 168.197 72.5137 169.714 69.8477C171.246 67.1816 173.905 65.8486 177.692 65.8486C181.479 65.8486 184.138 67.1816 185.669 69.8477C187.187 72.5137 187.946 76.3008 187.946 81.209C187.946 86.1172 187.18 89.8975 185.649 92.5498C184.131 95.2021 181.479 96.5283 177.692 96.5283ZM181.117 89.043C181.65 87.2383 181.916 84.627 181.916 81.209C181.916 77.627 181.643 74.9746 181.096 73.252C180.563 71.5293 179.428 70.668 177.692 70.668C175.956 70.668 174.807 71.5293 174.247 73.252C173.686 74.9746 173.406 77.627 173.406 81.209C173.406 84.627 173.686 87.2451 174.247 89.0635C174.807 90.8682 175.956 91.7705 177.692 91.7705C179.428 91.7705 180.57 90.8613 181.117 89.043ZM200.071 96.5283C196.284 96.5283 193.624 95.2021 192.093 92.5498C190.576 89.8975 189.817 86.1172 189.817 81.209C189.817 76.3008 190.576 72.5137 192.093 69.8477C193.624 67.1816 196.284 65.8486 200.071 65.8486C203.858 65.8486 206.517 67.1816 208.048 69.8477C209.566 72.5137 210.325 76.3008 210.325 81.209C210.325 86.1172 209.559 89.8975 208.028 92.5498C206.51 95.2021 203.858 96.5283 200.071 96.5283ZM203.496 89.043C204.029 87.2383 204.295 84.627 204.295 81.209C204.295 77.627 204.022 74.9746 203.475 73.252C202.942 71.5293 201.807 70.668 200.071 70.668C198.334 70.668 197.186 71.5293 196.625 73.252C196.065 74.9746 195.785 77.627 195.785 81.209C195.785 84.627 196.065 87.2451 196.625 89.0635C197.186 90.8682 198.334 91.7705 200.071 91.7705C201.807 91.7705 202.949 90.8613 203.496 89.043Z" fill="#19FB9B"/>
<path d="M55.9455 122.369C56.3499 122.369 56.6822 122.327 56.9425 122.243C57.4069 122.086 57.7873 121.786 58.0836 121.342C58.3198 120.985 58.49 120.529 58.5941 119.972C58.6542 119.64 58.6842 119.332 58.6842 119.047C58.6842 117.954 58.466 117.106 58.0295 116.501C57.5971 115.896 56.8984 115.594 55.9335 115.594H53.8134V122.369H55.9455ZM52.6123 114.567H56.1857C57.3989 114.567 58.3398 114.997 59.0085 115.858C59.6051 116.635 59.9034 117.63 59.9034 118.843C59.9034 119.78 59.7272 120.627 59.3749 121.384C58.7543 122.721 57.6872 123.39 56.1737 123.39H52.6123V114.567ZM61.561 114.567H67.9933V115.648H62.7261V118.327H67.5969V119.348H62.7261V122.339H68.0834V123.39H61.561V114.567ZM70.3476 114.567L72.882 122.08L75.3865 114.567H76.7258L73.5066 123.39H72.2394L69.0263 114.567H70.3476ZM77.969 114.567H84.4013V115.648H79.1341V118.327H84.0049V119.348H79.1341V122.339H84.4914V123.39H77.969V114.567ZM86.0589 114.567H87.2541V122.339H91.7224V123.39H86.0589V114.567ZM96.7133 114.327C98.2708 114.327 99.4239 114.827 100.173 115.828C100.757 116.609 101.05 117.608 101.05 118.825C101.05 120.142 100.715 121.238 100.047 122.11C99.2618 123.135 98.1427 123.648 96.6893 123.648C95.3319 123.648 94.2649 123.199 93.4881 122.303C92.7955 121.438 92.4491 120.345 92.4491 119.023C92.4491 117.83 92.7454 116.809 93.338 115.96C94.0987 114.871 95.2238 114.327 96.7133 114.327ZM96.8334 122.579C97.8864 122.579 98.6472 122.202 99.1156 121.45C99.5881 120.693 99.8243 119.824 99.8243 118.843C99.8243 117.806 99.5521 116.971 99.0075 116.339C98.467 115.706 97.7263 115.39 96.7854 115.39C95.8725 115.39 95.1277 115.704 94.5512 116.333C93.9746 116.957 93.6863 117.88 93.6863 119.101C93.6863 120.078 93.9326 120.903 94.4251 121.576C94.9215 122.245 95.7243 122.579 96.8334 122.579ZM102.593 114.567H106.563C107.348 114.567 107.98 114.789 108.461 115.234C108.941 115.674 109.181 116.295 109.181 117.096C109.181 117.784 108.967 118.385 108.539 118.897C108.11 119.406 107.452 119.66 106.563 119.66H103.788V123.39H102.593V114.567ZM107.974 117.102C107.974 116.453 107.734 116.012 107.254 115.78C106.989 115.656 106.627 115.594 106.167 115.594H103.788V118.651H106.167C106.703 118.651 107.137 118.537 107.47 118.309C107.806 118.08 107.974 117.678 107.974 117.102ZM110.797 114.567H117.229V115.648H111.962V118.327H116.833V119.348H111.962V122.339H117.319V123.39H110.797V114.567ZM122.989 118.609C123.549 118.609 123.992 118.497 124.316 118.273C124.645 118.048 124.809 117.644 124.809 117.059C124.809 116.431 124.58 116.002 124.124 115.774C123.88 115.654 123.553 115.594 123.145 115.594H120.226V118.609H122.989ZM119.031 114.567H123.115C123.788 114.567 124.342 114.665 124.779 114.861C125.607 115.238 126.022 115.932 126.022 116.945C126.022 117.474 125.912 117.906 125.692 118.243C125.475 118.579 125.171 118.849 124.779 119.053C125.123 119.194 125.381 119.378 125.553 119.606C125.73 119.834 125.828 120.205 125.848 120.717L125.89 121.9C125.902 122.237 125.93 122.487 125.974 122.651C126.046 122.931 126.174 123.111 126.358 123.191V123.39H124.893C124.853 123.314 124.821 123.215 124.797 123.095C124.773 122.975 124.753 122.743 124.737 122.399L124.665 120.927C124.637 120.351 124.422 119.964 124.022 119.768C123.794 119.66 123.435 119.606 122.947 119.606H120.226V123.39H119.031V114.567ZM128.556 120.543C128.584 121.043 128.702 121.45 128.911 121.762C129.307 122.347 130.006 122.639 131.007 122.639C131.455 122.639 131.864 122.575 132.232 122.447C132.945 122.198 133.301 121.754 133.301 121.113C133.301 120.633 133.151 120.291 132.851 120.086C132.546 119.886 132.07 119.712 131.421 119.564L130.226 119.294C129.445 119.117 128.893 118.923 128.568 118.711C128.008 118.343 127.728 117.792 127.728 117.059C127.728 116.267 128.002 115.616 128.55 115.108C129.099 114.599 129.876 114.345 130.881 114.345C131.806 114.345 132.59 114.569 133.235 115.017C133.884 115.462 134.208 116.175 134.208 117.156H133.085C133.025 116.683 132.897 116.321 132.7 116.069C132.336 115.608 131.717 115.378 130.845 115.378C130.14 115.378 129.633 115.526 129.325 115.822C129.017 116.119 128.863 116.463 128.863 116.855C128.863 117.288 129.043 117.604 129.403 117.804C129.639 117.932 130.174 118.092 131.007 118.285L132.244 118.567C132.841 118.703 133.301 118.889 133.625 119.125C134.186 119.538 134.466 120.136 134.466 120.921C134.466 121.898 134.11 122.597 133.397 123.017C132.688 123.438 131.864 123.648 130.923 123.648C129.826 123.648 128.967 123.368 128.346 122.807C127.726 122.251 127.421 121.496 127.433 120.543H128.556ZM142.718 118.297C143.223 118.297 143.615 118.227 143.895 118.086C144.336 117.866 144.556 117.47 144.556 116.897C144.556 116.321 144.322 115.932 143.853 115.732C143.589 115.62 143.197 115.564 142.676 115.564H140.544V118.297H142.718ZM143.121 122.369C143.853 122.369 144.376 122.156 144.688 121.732C144.884 121.464 144.982 121.139 144.982 120.759C144.982 120.118 144.696 119.682 144.124 119.45C143.819 119.326 143.417 119.264 142.916 119.264H140.544V122.369H143.121ZM139.373 114.567H143.163C144.196 114.567 144.93 114.875 145.367 115.492C145.623 115.856 145.751 116.277 145.751 116.753C145.751 117.31 145.593 117.766 145.277 118.123C145.113 118.311 144.876 118.483 144.568 118.639C145.02 118.811 145.359 119.005 145.583 119.222C145.979 119.606 146.178 120.136 146.178 120.813C146.178 121.382 145.999 121.896 145.643 122.357C145.111 123.045 144.264 123.39 143.103 123.39H139.373V114.567ZM148.904 114.567V120.02C148.904 120.661 149.024 121.194 149.265 121.618C149.621 122.259 150.221 122.579 151.066 122.579C152.079 122.579 152.768 122.233 153.132 121.54C153.329 121.163 153.427 120.657 153.427 120.02V114.567H154.64V119.522C154.64 120.607 154.494 121.442 154.201 122.026C153.665 123.091 152.652 123.624 151.162 123.624C149.673 123.624 148.662 123.091 148.129 122.026C147.837 121.442 147.691 120.607 147.691 119.522V114.567H148.904ZM156.766 114.567H157.973V123.39H156.766V114.567ZM159.919 114.567H161.114V122.339H165.582V123.39H159.919V114.567ZM170.153 122.369C170.557 122.369 170.89 122.327 171.15 122.243C171.614 122.086 171.995 121.786 172.291 121.342C172.527 120.985 172.697 120.529 172.802 119.972C172.862 119.64 172.892 119.332 172.892 119.047C172.892 117.954 172.673 117.106 172.237 116.501C171.805 115.896 171.106 115.594 170.141 115.594H168.021V122.369H170.153ZM166.82 114.567H170.393C171.606 114.567 172.547 114.997 173.216 115.858C173.813 116.635 174.111 117.63 174.111 118.843C174.111 119.78 173.935 120.627 173.582 121.384C172.962 122.721 171.895 123.39 170.381 123.39H166.82V114.567ZM175.925 114.567H177.132V123.39H175.925V114.567ZM179.078 114.567H180.489L184.945 121.714V114.567H186.08V123.39H184.741L180.219 116.249V123.39H179.078V114.567ZM191.78 114.339C192.609 114.339 193.326 114.499 193.93 114.819C194.807 115.28 195.344 116.087 195.54 117.24H194.357C194.212 116.595 193.914 116.127 193.462 115.834C193.009 115.538 192.439 115.39 191.75 115.39C190.933 115.39 190.245 115.696 189.684 116.309C189.127 116.921 188.849 117.834 188.849 119.047C188.849 120.096 189.079 120.951 189.54 121.612C190 122.269 190.751 122.597 191.792 122.597C192.589 122.597 193.247 122.367 193.768 121.906C194.292 121.442 194.561 120.693 194.573 119.66H191.81V118.669H195.684V123.39H194.915L194.627 122.255C194.222 122.699 193.864 123.007 193.552 123.179C193.027 123.476 192.361 123.624 191.552 123.624C190.507 123.624 189.608 123.286 188.855 122.609C188.034 121.76 187.624 120.595 187.624 119.113C187.624 117.636 188.024 116.461 188.825 115.588C189.586 114.755 190.571 114.339 191.78 114.339ZM204.35 122.369C204.755 122.369 205.087 122.327 205.347 122.243C205.812 122.086 206.192 121.786 206.488 121.342C206.725 120.985 206.895 120.529 206.999 119.972C207.059 119.64 207.089 119.332 207.089 119.047C207.089 117.954 206.871 117.106 206.434 116.501C206.002 115.896 205.303 115.594 204.338 115.594H202.218V122.369H204.35ZM201.017 114.567H204.591C205.804 114.567 206.745 114.997 207.413 115.858C208.01 116.635 208.308 117.63 208.308 118.843C208.308 119.78 208.132 120.627 207.78 121.384C207.159 122.721 206.092 123.39 204.579 123.39H201.017V114.567ZM211.149 114.567V120.02C211.149 120.661 211.269 121.194 211.509 121.618C211.866 122.259 212.466 122.579 213.311 122.579C214.324 122.579 215.013 122.233 215.377 121.54C215.573 121.163 215.671 120.657 215.671 120.02V114.567H216.885V119.522C216.885 120.607 216.738 121.442 216.446 122.026C215.91 123.091 214.897 123.624 213.407 123.624C211.918 123.624 210.907 123.091 210.374 122.026C210.082 121.442 209.936 120.607 209.936 119.522V114.567H211.149ZM222.842 118.609C223.403 118.609 223.845 118.497 224.17 118.273C224.498 118.048 224.662 117.644 224.662 117.059C224.662 116.431 224.434 116.002 223.977 115.774C223.733 115.654 223.407 115.594 222.998 115.594H220.08V118.609H222.842ZM218.884 114.567H222.968C223.641 114.567 224.196 114.665 224.632 114.861C225.461 115.238 225.875 115.932 225.875 116.945C225.875 117.474 225.765 117.906 225.545 118.243C225.329 118.579 225.024 118.849 224.632 119.053C224.976 119.194 225.235 119.378 225.407 119.606C225.583 119.834 225.681 120.205 225.701 120.717L225.743 121.9C225.755 122.237 225.783 122.487 225.827 122.651C225.899 122.931 226.027 123.111 226.212 123.191V123.39H224.746C224.706 123.314 224.674 123.215 224.65 123.095C224.626 122.975 224.606 122.743 224.59 122.399L224.518 120.927C224.49 120.351 224.276 119.964 223.875 119.768C223.647 119.66 223.289 119.606 222.8 119.606H220.08V123.39H218.884V114.567ZM227.899 114.567H229.106V123.39H227.899V114.567ZM231.052 114.567H232.464L236.92 121.714V114.567H238.055V123.39H236.716L232.193 116.249V123.39H231.052V114.567ZM243.755 114.339C244.584 114.339 245.3 114.499 245.905 114.819C246.782 115.28 247.318 116.087 247.514 117.24H246.331C246.187 116.595 245.889 116.127 245.436 115.834C244.984 115.538 244.413 115.39 243.725 115.39C242.908 115.39 242.219 115.696 241.659 116.309C241.102 116.921 240.824 117.834 240.824 119.047C240.824 120.096 241.054 120.951 241.515 121.612C241.975 122.269 242.726 122.597 243.767 122.597C244.564 122.597 245.222 122.367 245.743 121.906C246.267 121.442 246.535 120.693 246.547 119.66H243.785V118.669H247.659V123.39H246.89L246.602 122.255C246.197 122.699 245.839 123.007 245.526 123.179C245.002 123.476 244.335 123.624 243.527 123.624C242.481 123.624 241.583 123.286 240.83 122.609C240.009 121.76 239.599 120.595 239.599 119.113C239.599 117.636 239.999 116.461 240.8 115.588C241.561 114.755 242.546 114.339 243.755 114.339ZM83.2061 135.543C83.2341 136.043 83.3523 136.45 83.5605 136.762C83.9568 137.347 84.6555 137.639 85.6565 137.639C86.1049 137.639 86.5133 137.575 86.8817 137.447C87.5944 137.198 87.9507 136.754 87.9507 136.113C87.9507 135.633 87.8006 135.291 87.5003 135.086C87.196 134.886 86.7195 134.712 86.0709 134.564L84.8757 134.294C84.095 134.117 83.5424 133.923 83.2181 133.711C82.6576 133.343 82.3773 132.792 82.3773 132.059C82.3773 131.267 82.6516 130.616 83.2001 130.108C83.7486 129.599 84.5254 129.345 85.5304 129.345C86.4553 129.345 87.24 129.569 87.8847 130.017C88.5333 130.462 88.8576 131.175 88.8576 132.156H87.7345C87.6745 131.683 87.5463 131.321 87.3502 131.069C86.9858 130.608 86.3672 130.378 85.4943 130.378C84.7897 130.378 84.2832 130.526 83.9749 130.822C83.6666 131.119 83.5124 131.463 83.5124 131.855C83.5124 132.288 83.6926 132.604 84.0529 132.804C84.2892 132.932 84.8237 133.092 85.6565 133.285L86.8937 133.567C87.4903 133.703 87.9507 133.889 88.2751 134.125C88.8356 134.538 89.1159 135.136 89.1159 135.921C89.1159 136.898 88.7595 137.597 88.0468 138.017C87.3381 138.438 86.5133 138.648 85.5724 138.648C84.4753 138.648 83.6165 138.368 82.9959 137.807C82.3753 137.251 82.071 136.496 82.083 135.543H83.2061ZM94.4371 129.327C95.9946 129.327 97.1477 129.827 97.8964 130.828C98.481 131.609 98.7733 132.608 98.7733 133.825C98.7733 135.142 98.439 136.238 97.7703 137.11C96.9856 138.135 95.8665 138.648 94.413 138.648C93.0557 138.648 91.9887 138.199 91.2119 137.303C90.5192 136.438 90.1729 135.345 90.1729 134.023C90.1729 132.83 90.4692 131.809 91.0618 130.96C91.8225 129.871 92.9476 129.327 94.4371 129.327ZM94.5572 137.579C95.6102 137.579 96.371 137.202 96.8394 136.45C97.3119 135.693 97.5481 134.824 97.5481 133.843C97.5481 132.806 97.2758 131.971 96.7313 131.339C96.1908 130.706 95.4501 130.39 94.5091 130.39C93.5962 130.39 92.8515 130.704 92.275 131.333C91.6984 131.957 91.4101 132.88 91.4101 134.101C91.4101 135.078 91.6564 135.903 92.1488 136.576C92.6453 137.245 93.4481 137.579 94.5572 137.579ZM100.203 129.567H101.398V137.339H105.866V138.39H100.203V129.567ZM111.578 134.774L110.238 130.876L108.815 134.774H111.578ZM109.614 129.567H110.965L114.166 138.39H112.857L111.962 135.747H108.473L107.518 138.39H106.293L109.614 129.567ZM115.253 129.567H116.665L121.121 136.714V129.567H122.256V138.39H120.917L116.394 131.249V138.39H115.253V129.567ZM128.67 134.774L127.331 130.876L125.908 134.774H128.67ZM126.707 129.567H128.058L131.259 138.39H129.95L129.055 135.747H125.565L124.611 138.39H123.385L126.707 129.567ZM135.127 129.567H136.334V133.213H140.922V129.567H142.13V138.39H140.922V134.264H136.334V138.39H135.127V129.567ZM148.514 134.774L147.175 130.876L145.751 134.774H148.514ZM146.55 129.567H147.901L151.102 138.39H149.793L148.898 135.747H145.409L144.454 138.39H143.229L146.55 129.567ZM155.907 129.327C157.024 129.327 157.891 129.621 158.508 130.21C159.124 130.798 159.467 131.467 159.535 132.216H158.369C158.237 131.647 157.973 131.197 157.577 130.864C157.184 130.532 156.632 130.366 155.919 130.366C155.05 130.366 154.348 130.672 153.811 131.285C153.278 131.893 153.012 132.828 153.012 134.089C153.012 135.122 153.252 135.961 153.733 136.606C154.217 137.247 154.938 137.567 155.895 137.567C156.776 137.567 157.447 137.229 157.907 136.552C158.151 136.196 158.333 135.727 158.454 135.146H159.619C159.515 136.075 159.17 136.854 158.586 137.483C157.885 138.24 156.94 138.618 155.751 138.618C154.726 138.618 153.865 138.308 153.168 137.687C152.251 136.866 151.793 135.599 151.793 133.885C151.793 132.584 152.137 131.517 152.826 130.684C153.571 129.779 154.598 129.327 155.907 129.327ZM161.078 129.567H162.243V133.867L166.543 129.567H168.195L164.525 133.123L168.297 138.39H166.742L163.655 133.963L162.243 135.315V138.39H161.078V129.567ZM173.811 134.774L172.471 130.876L171.048 134.774H173.811ZM171.847 129.567H173.198L176.399 138.39H175.09L174.195 135.747H170.705L169.751 138.39H168.525L171.847 129.567ZM182.993 129.567V130.618H180.021V138.39H178.807V130.618H175.834V129.567H182.993ZM184.123 129.567H185.33V133.213H189.918V129.567H191.125V138.39H189.918V134.264H185.33V138.39H184.123V129.567ZM196.789 129.327C198.346 129.327 199.5 129.827 200.248 130.828C200.833 131.609 201.125 132.608 201.125 133.825C201.125 135.142 200.791 136.238 200.122 137.11C199.337 138.135 198.218 138.648 196.765 138.648C195.408 138.648 194.341 138.199 193.564 137.303C192.871 136.438 192.525 135.345 192.525 134.023C192.525 132.83 192.821 131.809 193.414 130.96C194.174 129.871 195.299 129.327 196.789 129.327ZM196.909 137.579C197.962 137.579 198.723 137.202 199.191 136.45C199.664 135.693 199.9 134.824 199.9 133.843C199.9 132.806 199.628 131.971 199.083 131.339C198.543 130.706 197.802 130.39 196.861 130.39C195.948 130.39 195.203 130.704 194.627 131.333C194.05 131.957 193.762 132.88 193.762 134.101C193.762 135.078 194.008 135.903 194.501 136.576C194.997 137.245 195.8 137.579 196.909 137.579ZM202.555 129.567H203.966L208.422 136.714V129.567H209.557V138.39H208.218L203.696 131.249V138.39H202.555V129.567ZM212.224 135.543C212.252 136.043 212.37 136.45 212.578 136.762C212.975 137.347 213.673 137.639 214.674 137.639C215.123 137.639 215.531 137.575 215.9 137.447C216.612 137.198 216.969 136.754 216.969 136.113C216.969 135.633 216.818 135.291 216.518 135.086C216.214 134.886 215.737 134.712 215.089 134.564L213.894 134.294C213.113 134.117 212.56 133.923 212.236 133.711C211.675 133.343 211.395 132.792 211.395 132.059C211.395 131.267 211.669 130.616 212.218 130.108C212.767 129.599 213.543 129.345 214.548 129.345C215.473 129.345 216.258 129.569 216.903 130.017C217.551 130.462 217.875 131.175 217.875 132.156H216.752C216.692 131.683 216.564 131.321 216.368 131.069C216.004 130.608 215.385 130.378 214.512 130.378C213.808 130.378 213.301 130.526 212.993 130.822C212.684 131.119 212.53 131.463 212.53 131.855C212.53 132.288 212.71 132.604 213.071 132.804C213.307 132.932 213.842 133.092 214.674 133.285L215.912 133.567C216.508 133.703 216.969 133.889 217.293 134.125C217.853 134.538 218.134 135.136 218.134 135.921C218.134 136.898 217.777 137.597 217.065 138.017C216.356 138.438 215.531 138.648 214.59 138.648C213.493 138.648 212.634 138.368 212.014 137.807C211.393 137.251 211.089 136.496 211.101 135.543H212.224Z" fill="#BABABA"/>
</svg>
