<svg width="150" height="23" viewBox="0 0 150 23" fill="none" xmlns="http://www.w3.org/2000/svg">
<g clip-path="url(#clip0_1_40030)">
<g clip-path="url(#clip1_1_40030)">
<g clip-path="url(#clip2_1_40030)">
<mask id="mask0_1_40030" style="mask-type:luminance" maskUnits="userSpaceOnUse" x="0" y="0" width="150" height="23">
<path d="M0.507812 0.580078H149.492V22.7201H0.507812V0.580078Z" fill="white"/>
</mask>
<g mask="url(#mask0_1_40030)">
<path d="M25.538 18.0362L21.4513 22.4181C21.3629 22.5133 21.2559 22.5892 21.1368 22.6412C21.0178 22.6932 20.8893 22.7201 20.7594 22.7202H1.38693C1.29453 22.7201 1.20416 22.6931 1.12687 22.6425C1.04958 22.5919 0.988727 22.5198 0.951769 22.4351C0.914812 22.3504 0.90335 22.2568 0.918788 22.1657C0.934225 22.0746 0.975892 21.99 1.03869 21.9222L5.12075 17.5403C5.20914 17.4452 5.31619 17.3692 5.43523 17.3172C5.55426 17.2653 5.68273 17.2384 5.81262 17.2382H25.1851C25.2784 17.2363 25.3701 17.262 25.4488 17.3121C25.5275 17.3622 25.5896 17.4344 25.6273 17.5197C25.665 17.605 25.6766 17.6996 25.6608 17.7915C25.6449 17.8834 25.6021 17.9685 25.538 18.0362ZM21.4513 9.21017C21.3626 9.11542 21.2555 9.03976 21.1365 8.98782C21.0175 8.93587 20.8892 8.90873 20.7594 8.90805H1.38693C1.29453 8.9081 1.20416 8.93509 1.12687 8.98572C1.04958 9.03636 0.988727 9.10842 0.951769 9.19311C0.914812 9.27779 0.90335 9.37141 0.918788 9.46251C0.934225 9.55361 0.975892 9.63823 1.03869 9.70601L5.12075 14.0902C5.20948 14.1849 5.3166 14.2606 5.43556 14.3125C5.55452 14.3645 5.68282 14.3916 5.81262 14.3923H25.1851C25.2773 14.3918 25.3674 14.3645 25.4443 14.3137C25.5213 14.2629 25.5818 14.1908 25.6184 14.1062C25.6551 14.0216 25.6664 13.9282 25.6509 13.8373C25.6354 13.7464 25.5937 13.662 25.5311 13.5943L21.4513 9.21017ZM1.38693 6.06214H20.7594C20.8893 6.06203 21.0178 6.03514 21.1368 5.98316C21.2559 5.93118 21.3629 5.85522 21.4513 5.76002L25.538 1.37814C25.5859 1.3275 25.622 1.2669 25.6438 1.20067C25.6655 1.13445 25.6724 1.06423 25.6639 0.995045C25.6553 0.925859 25.6316 0.859411 25.5944 0.800451C25.5573 0.741491 25.5075 0.691475 25.4487 0.65398C25.3701 0.603924 25.2783 0.578247 25.1851 0.58018H5.81262C5.68273 0.580316 5.55426 0.607213 5.43523 0.659193C5.31619 0.711172 5.20914 0.78712 5.12075 0.882298L1.03869 5.26417C0.975892 5.33195 0.934225 5.41657 0.918788 5.50767C0.90335 5.59877 0.914812 5.69239 0.951769 5.77708C0.988727 5.86176 1.04958 5.93383 1.12687 5.98446C1.20416 6.03509 1.29453 6.06208 1.38693 6.06214Z" fill="url(#paint0_linear_1_40030)"/>
<path d="M49.1557 9.94346H38.7914V6.53021H51.8494V3.11696H38.7568C38.3095 3.11447 37.866 3.20014 37.4518 3.36906C37.0375 3.53798 36.6607 3.78685 36.3426 4.10146C36.0246 4.41607 35.7716 4.79024 35.5982 5.20262C35.4248 5.615 35.3344 6.0575 35.332 6.50485V9.96422C35.3338 10.412 35.4238 10.8549 35.5969 11.2679C35.7701 11.6808 36.0229 12.0555 36.341 12.3706C36.6591 12.6857 37.0362 12.935 37.4507 13.1042C37.8653 13.2734 38.3091 13.3592 38.7568 13.3567H49.1349V16.77H35.5788V20.1832H49.1557C49.8294 20.187 50.4891 19.9908 51.0514 19.6195C51.6136 19.2483 52.053 18.7185 52.3141 18.0974C52.4876 17.6851 52.5781 17.2427 52.5805 16.7953V13.336C52.5787 12.8882 52.4887 12.4453 52.3155 12.0324C52.1424 11.6195 51.8895 11.2447 51.5714 10.9297C51.2534 10.6146 50.8763 10.3653 50.4618 10.1961C50.0472 10.0268 49.6034 9.941 49.1557 9.94346ZM69.2339 3.11696H58.8304C58.1555 3.11159 57.4943 3.30676 56.9305 3.67773C56.3667 4.0487 55.9258 4.57875 55.6637 5.20066C55.4896 5.61354 55.3987 6.05676 55.3964 6.50485V16.7953C55.3987 17.2434 55.4896 17.6867 55.6637 18.0997C55.9258 18.7217 56.3667 19.2517 56.9305 19.6227C57.4943 19.9936 58.1556 20.1887 58.8304 20.1832H69.2339C69.6813 20.1857 70.1247 20.1 70.5389 19.9311C70.9532 19.7622 71.3301 19.5133 71.6481 19.1987C71.9661 18.8841 72.2191 18.5099 72.3925 18.0976C72.5659 17.6852 72.6563 17.2427 72.6587 16.7953V6.50485C72.6564 6.05751 72.5659 5.61503 72.3925 5.20268C72.219 4.79034 71.966 4.41623 71.6479 4.10173C71.3299 3.78702 70.9531 3.53806 70.5389 3.36909C70.1247 3.20012 69.6812 3.11444 69.2339 3.11696ZM69.2085 16.77H58.8558V6.53021H69.2039L69.2085 16.77ZM105.673 3.11696H95.5252C95.0778 3.11447 94.6344 3.20014 94.2201 3.36906C93.8059 3.53798 93.429 3.78685 93.111 4.10146C92.7929 4.41607 92.54 4.79024 92.3666 5.20262C92.1932 5.615 92.1027 6.0575 92.1004 6.50485V20.1832H95.5597V14.5767H105.661V20.1832H109.121V6.50485C109.118 6.05552 109.027 5.6111 108.852 5.19717C108.677 4.78325 108.422 4.40801 108.102 4.09309C107.781 3.77817 107.402 3.52978 106.985 3.36225C106.568 3.19472 106.122 3.11136 105.673 3.11696ZM105.647 11.1635H95.5459V6.53021H105.647V11.1635ZM146.067 3.11696H135.919C135.472 3.11447 135.028 3.20014 134.614 3.36906C134.2 3.53798 133.823 3.78685 133.505 4.10146C133.187 4.41607 132.934 4.79024 132.761 5.20262C132.587 5.615 132.497 6.0575 132.494 6.50485V20.1832H135.954V14.5767H146.032V20.1832H149.491V6.50485C149.489 6.05751 149.399 5.61503 149.225 5.20268C149.052 4.79034 148.799 4.41623 148.481 4.10173C147.838 3.46638 146.97 3.11215 146.067 3.11696ZM146.032 11.1635H135.931V6.53021H146.032V11.1635ZM125.968 16.77H124.584L119.637 4.54684C119.467 4.12509 119.176 3.76363 118.799 3.50885C118.423 3.25407 117.979 3.1176 117.524 3.11696H114.455C114.006 3.11454 113.566 3.2455 113.191 3.49327C112.816 3.74103 112.523 4.09445 112.349 4.50879C112.234 4.78379 112.173 5.07882 112.172 5.37709V20.1832H115.631V6.53021H117.015L121.959 18.7533C122.132 19.1743 122.426 19.5343 122.804 19.7874C123.181 20.0405 123.626 20.1751 124.081 20.174H127.151C127.449 20.1756 127.745 20.1184 128.021 20.0056C128.297 19.8928 128.549 19.7267 128.761 19.5167C129.189 19.0928 129.431 18.5163 129.434 17.9139V3.11696H125.968V16.77ZM79.1738 3.11696H75.7145V16.7953C75.7168 17.2436 75.8076 17.6871 75.9818 18.1002C76.1559 18.5133 76.4099 18.8879 76.7292 19.2026C77.0485 19.5173 77.4267 19.7659 77.8423 19.9342C78.2578 20.1025 78.7025 20.1871 79.1508 20.1832H89.5289V16.77H79.1738V3.11696Z" fill="white"/>
</g>
</g>
</g>
</g>
<defs>
<linearGradient id="paint0_linear_1_40030" x1="3.00131" y1="23.2483" x2="23.3148" y2="0.347248" gradientUnits="userSpaceOnUse">
<stop offset="0.08" stop-color="#9945FF"/>
<stop offset="0.3" stop-color="#8752F3"/>
<stop offset="0.5" stop-color="#5497D5"/>
<stop offset="0.6" stop-color="#43B4CA"/>
<stop offset="0.72" stop-color="#28E0B9"/>
<stop offset="0.97" stop-color="#19FB9B"/>
</linearGradient>
<clipPath id="clip0_1_40030">
<rect width="149" height="22.14" fill="white" transform="translate(0.5 0.580078)"/>
</clipPath>
<clipPath id="clip1_1_40030">
<rect width="149" height="22.14" fill="white" transform="translate(0.5 0.580078)"/>
</clipPath>
<clipPath id="clip2_1_40030">
<rect width="148.984" height="22.14" fill="white" transform="translate(0.507812 0.580078)"/>
</clipPath>
</defs>
</svg>
