<svg width="17" height="17" viewBox="0 0 17 17" fill="none" xmlns="http://www.w3.org/2000/svg">
<path fill-rule="evenodd" clip-rule="evenodd" d="M6.24092 2.22817C6.49642 2.13913 6.77639 2.26948 6.8727 2.52232L7.51195 4.20031H9.48942L10.1287 2.52232C10.225 2.26948 10.5049 2.13913 10.7605 2.22817L14.2185 3.43331L14.2973 3.66381C15.0328 5.81892 15.4353 7.69979 15.5908 9.21166C15.7445 10.7044 15.6635 11.8938 15.3783 12.6307C15.3734 12.6434 15.368 12.6559 15.3621 12.6681C15.1022 13.2054 14.7095 13.8179 14.2224 14.3041C13.7437 14.7819 13.1095 15.2003 12.3726 15.2003H12.1304L10.3865 12.9919C10.9167 12.8763 11.4558 12.7126 12.0116 12.5009L11.6556 11.5664C9.43688 12.4116 7.56362 12.4116 5.34493 11.5664L4.98894 12.5009C5.54493 12.7127 6.08436 12.8764 6.61474 12.992L4.871 15.2003H4.62873C3.8919 15.2003 3.2576 14.7819 2.77893 14.3041C2.29186 13.8179 1.89926 13.2054 1.63927 12.6681C1.63335 12.6559 1.62794 12.6434 1.62304 12.6307C1.33786 11.8938 1.25692 10.7044 1.41054 9.21166C1.56612 7.69979 1.96857 5.81892 2.70412 3.66381L2.7828 3.43331L6.24092 2.22817ZM5.82896 7.03353C5.27945 7.03353 4.83398 7.48126 4.83398 8.03353C4.83398 8.58579 5.27945 9.03353 5.82896 9.03353H5.83901C6.38852 9.03353 6.83398 8.58579 6.83398 8.03353C6.83398 7.48126 6.38852 7.03353 5.83901 7.03353H5.82896ZM11.1623 7.03353C10.6128 7.03353 10.1673 7.48126 10.1673 8.03353C10.1673 8.58579 10.6128 9.03353 11.1623 9.03353H11.1723C11.7219 9.03353 12.1673 8.58579 12.1673 8.03353C12.1673 7.48126 11.7219 7.03353 11.1723 7.03353H11.1623Z" fill="#111111"/>
</svg>
