<svg width="17" height="17" viewBox="0 0 17 17" fill="none" xmlns="http://www.w3.org/2000/svg">
<path fill-rule="evenodd" clip-rule="evenodd" d="M3.74982 14.9429C2.73456 14.45 1.92476 13.5517 1.33398 12.3222L2.53576 11.7448C3.03182 12.7771 3.65339 13.4139 4.33209 13.7434C5.00627 14.0707 5.81344 14.132 6.75756 13.8715L7.11219 15.1568C5.91903 15.486 4.76961 15.4379 3.74982 14.9429Z" fill="#111111"/>
<path d="M4.7628 1.53357H4.76352H4.76438L4.76648 1.53358L4.77224 1.53363L4.7898 1.53392C4.80415 1.53424 4.82373 1.53483 4.84811 1.53594C4.89684 1.53817 4.96494 1.54248 5.04898 1.55084C5.21669 1.56754 5.44993 1.60057 5.72053 1.6662C6.20051 1.78261 6.81548 2.00589 7.38938 2.43778C7.88885 2.31992 8.59625 2.18235 9.50065 2.18234C10.4051 2.18232 11.1125 2.31992 11.6119 2.4378C12.1859 2.0059 12.8008 1.78262 13.2808 1.6662C13.5514 1.60057 13.7846 1.56754 13.9523 1.55084C14.0364 1.54248 14.1045 1.53817 14.1532 1.53594C14.1776 1.53483 14.1971 1.53424 14.2115 1.53392L14.2291 1.53363L14.2348 1.53358L14.2369 1.53357H14.2378C14.2378 1.53357 14.2385 1.53357 14.2385 2.03357V1.53357H14.5803L14.7044 1.85204C14.8772 2.29564 14.9397 2.83526 14.9406 3.3414C14.9413 3.76751 14.8983 4.19922 14.8233 4.57579C15.0263 4.8969 15.2159 5.2775 15.3631 5.66819C15.5386 6.13404 15.6673 6.6496 15.6673 7.1193C15.6673 8.73404 15.1263 9.87444 14.2706 10.679C13.6206 11.2902 12.8138 11.6837 11.9979 11.9632C12.1727 12.2264 12.334 12.5742 12.334 13.0303V15.8669H6.66732V13.0303C6.66732 12.5742 6.82861 12.2264 7.00341 11.9632C6.18744 11.6837 5.3807 11.2902 4.7307 10.679C3.875 9.87444 3.33398 8.73404 3.33398 7.1193C3.33398 6.6496 3.46271 6.13404 3.63824 5.66819C3.78545 5.2775 3.975 4.8969 4.17799 4.57578C4.10295 4.19922 4.05998 3.7675 4.06072 3.3414C4.06158 2.83526 4.12408 2.29564 4.29692 1.85204L4.421 1.53357H4.7628Z" fill="#111111"/>
</svg>
