<svg width="17" height="17" viewBox="0 0 17 17" fill="none" xmlns="http://www.w3.org/2000/svg">
<path d="M8.5 2.8669C8.22387 2.8669 8 3.09076 8 3.3669V6.70024H9V3.8669H11.4023C11.62 4.6364 12.3275 5.20024 13.1667 5.20024C14.1792 5.20024 15 4.37942 15 3.3669C15 2.35438 14.1792 1.53357 13.1667 1.53357C12.3275 1.53357 11.62 2.0974 11.4023 2.8669H8.5Z" fill="#111111"/>
<path fill-rule="evenodd" clip-rule="evenodd" d="M4.84893 7.02944C4.50132 6.52829 3.91912 6.2002 3.26097 6.2002C2.20124 6.2002 1.33398 7.05237 1.33398 8.1136C1.33398 8.79853 1.69616 9.39673 2.23592 9.73406C2.08354 10.1441 2.00065 10.5795 2.00065 11.0335C2.00065 12.4311 2.78592 13.6513 3.96526 14.503C5.14526 15.3552 6.75038 15.8669 8.50065 15.8669C10.2509 15.8669 11.8561 15.3552 13.0361 14.503C14.2154 13.6513 15.0007 12.4311 15.0007 11.0335C15.0007 10.5795 14.9178 10.1441 14.7654 9.73406C15.3051 9.39673 15.6673 8.79853 15.6673 8.1136C15.6673 7.05237 14.8001 6.2002 13.7403 6.2002C13.0822 6.2002 12.5 6.5283 12.1524 7.02944C11.1057 6.50251 9.84605 6.2002 8.50065 6.2002C7.15526 6.2002 5.89563 6.50251 4.84893 7.02944ZM8.50072 12.2001C7.74838 12.2001 7.0494 11.9404 6.47472 11.4925L5.86002 12.2813C6.59884 12.8571 7.51145 13.2001 8.50072 13.2001C9.48992 13.2001 10.4026 12.8571 11.1414 12.2813L10.5267 11.4925C9.95198 11.9404 9.25305 12.2001 8.50072 12.2001ZM7.17252 9.36686C7.17252 9.73506 6.87405 10.0335 6.50586 10.0335H6.49987C6.13168 10.0335 5.8332 9.73506 5.8332 9.36686C5.8332 8.99866 6.13168 8.7002 6.49987 8.7002H6.50586C6.87405 8.7002 7.17252 8.99866 7.17252 9.36686ZM10.5059 10.0335C10.8741 10.0335 11.1725 9.73506 11.1725 9.36686C11.1725 8.99866 10.8741 8.7002 10.5059 8.7002H10.4999C10.1317 8.7002 9.83318 8.99866 9.83318 9.36686C9.83318 9.73506 10.1317 10.0335 10.4999 10.0335H10.5059Z" fill="#111111"/>
</svg>
