<svg width="211" height="57" viewBox="0 0 211 57" fill="none" xmlns="http://www.w3.org/2000/svg">
<g clip-path="url(#clip0_1_39981)">
<path d="M67.7452 14.5239H56.0991V17.4354H64.649C65.0557 17.435 65.4585 17.5148 65.8344 17.6703C66.2102 17.8257 66.5517 18.0538 66.8393 18.3414C67.1269 18.629 67.3549 18.9705 67.5104 19.3463C67.6658 19.7221 67.7456 20.1249 67.7452 20.5317V23.0744C67.7472 23.4816 67.6685 23.8851 67.5136 24.2616C67.3587 24.6381 67.1307 24.9802 66.8428 25.2681C66.5549 25.5559 66.2127 25.7839 65.8362 25.9387C65.4596 26.0935 65.0561 26.1721 64.649 26.17H53.1875V23.2585H64.8337V20.347H56.2838C55.8771 20.3474 55.4742 20.2676 55.0984 20.1121C54.7226 19.9567 54.3811 19.7286 54.0935 19.441C53.8059 19.1534 53.5778 18.8119 53.4224 18.4361C53.2669 18.0603 53.1871 17.6575 53.1875 17.2507V14.7086C53.1855 14.3015 53.2642 13.898 53.4191 13.5214C53.574 13.1449 53.802 12.8028 54.09 12.515C54.3779 12.2271 54.72 11.9992 55.0966 11.8443C55.4731 11.6895 55.8766 11.6109 56.2838 11.613H67.7452V14.5245V14.5239ZM81.8627 11.6124C83.585 11.6124 84.9798 12.9862 84.9798 14.7086V23.0738C84.9798 24.7962 83.585 26.17 81.8627 26.17H72.9029C72.4957 26.1721 72.0921 26.0935 71.7155 25.9386C71.3389 25.7838 70.9968 25.5558 70.7088 25.2678C70.4209 24.9799 70.1929 24.6378 70.0381 24.2612C69.8832 23.8846 69.8045 23.481 69.8066 23.0738V14.7086C69.8045 14.3014 69.8832 13.8978 70.0381 13.5212C70.1929 13.1446 70.4209 12.8025 70.7088 12.5146C70.9968 12.2266 71.3389 11.9986 71.7155 11.8438C72.0921 11.6889 72.4957 11.6103 72.9029 11.6124H81.8627ZM82.0474 14.5239H72.7182V23.2585H82.0474V14.5239ZM90.164 23.156H101.523V26.2934H89.0362C88.5035 26.2925 87.9928 26.0806 87.6161 25.7039C87.2395 25.3272 87.0275 24.8165 87.0266 24.2838V11.489H90.164V23.1554V23.156ZM116.217 11.6124C117.611 11.6124 118.739 12.7193 118.739 14.114V26.17H115.806V21.3925H106.477V26.17H103.565V14.114C103.563 13.7849 103.627 13.4587 103.752 13.1542C103.877 12.8497 104.061 12.5731 104.293 12.3404C104.526 12.1077 104.803 11.9235 105.107 11.7985C105.412 11.6735 105.738 11.6103 106.067 11.6124H116.217ZM115.806 14.5239H106.477V18.481H115.806V14.5239ZM133.026 11.6124H135.959V24.2838C135.959 25.3294 135.097 26.17 134.051 26.17H131.796C131.079 26.1903 130.443 25.8006 130.115 25.1656L124.456 14.5239H123.697V26.17H120.785V13.5194C120.785 12.453 121.626 11.6124 122.672 11.6124H125.051C125.748 11.6124 126.404 11.9818 126.732 12.6168L132.39 23.2585H133.026V11.6124ZM150.656 11.6124C152.051 11.6124 153.178 12.7193 153.178 14.114V26.17H150.246V21.3925H140.917V26.17H138.005V14.114C138.003 13.7849 138.067 13.4587 138.192 13.1542C138.317 12.8497 138.501 12.5731 138.733 12.3404C138.966 12.1077 139.243 11.9235 139.547 11.7985C139.852 11.6735 140.178 11.6103 140.507 11.6124H150.656ZM150.246 14.5239H140.917V18.481H150.246V14.5239ZM67.4581 33.4998H56.0991V36.4113H67.4581V39.3229H56.0991V45.1459H53.1875V30.5883H67.4581V33.4998ZM81.5628 30.5883C83.2846 30.5883 84.6793 31.9621 84.6793 33.6845V42.0497C84.6793 43.7721 83.2846 45.1459 81.5628 45.1459H72.6024C72.1952 45.148 71.7917 45.0694 71.4151 44.9145C71.0385 44.7597 70.6963 44.5317 70.4084 44.2437C70.1204 43.9558 69.8925 43.6137 69.7376 43.2371C69.5827 42.8605 69.5041 42.4569 69.5062 42.0497V33.6845C69.5041 33.2773 69.5827 32.8737 69.7376 32.4971C69.8925 32.1205 70.1204 31.7784 70.4084 31.4905C70.6963 31.2025 71.0385 30.9745 71.4151 30.8197C71.7917 30.6648 72.1952 30.5862 72.6024 30.5883H81.5628ZM81.7469 33.4998H72.4177V42.2344H81.7469V33.4998ZM98.9669 30.5883H101.899V40.266C101.878 42.9726 99.7051 45.1459 96.9985 45.1459H91.6062C90.9648 45.1479 90.3293 45.0229 89.7364 44.7784C89.1435 44.5338 88.6047 44.1744 88.1512 43.7209C87.6977 43.2674 87.3383 42.7287 87.0937 42.1357C86.8492 41.5428 86.7243 40.9074 86.7262 40.266V30.5883H89.6377V39.6714C89.6379 40.3511 89.908 41.0029 90.3886 41.4835C90.8692 41.9641 91.521 42.2342 92.2007 42.2344H96.4039C97.0836 42.2342 97.7354 41.9641 98.216 41.4835C98.6967 41.0029 98.9667 40.3511 98.9669 39.6714V30.5883ZM116.187 30.5883H119.119V43.2597C119.119 44.3053 118.258 45.1459 117.212 45.1459H114.957C114.239 45.1662 113.604 44.7765 113.275 44.1415L107.616 33.4998H106.858V45.1459H103.946V32.4953C103.946 31.4289 104.787 30.5883 105.832 30.5883H108.211C108.908 30.5883 109.564 30.9577 109.892 31.5933L115.551 42.2344H116.187V30.5883ZM131.438 30.5883C134.145 30.5883 136.318 32.7825 136.339 35.4682V40.266C136.318 42.9726 134.145 45.1459 131.438 45.1459H121.166V30.5883H131.438ZM133.407 36.083C133.407 34.6478 132.258 33.4998 130.844 33.4998H124.078V42.2344H130.844C131.524 42.2341 132.175 41.9639 132.656 41.4833C133.136 41.0028 133.407 40.351 133.407 39.6714V36.083ZM151.037 30.5883C152.431 30.5883 153.559 31.6952 153.559 33.0899V45.1459H150.627V40.3684H141.298V45.1459H138.386V33.0899C138.384 32.7608 138.447 32.4346 138.572 32.1301C138.697 31.8257 138.881 31.5491 139.114 31.3163C139.346 31.0836 139.623 30.8994 139.927 30.7744C140.232 30.6494 140.558 30.5862 140.887 30.5883H151.037ZM150.627 33.4998H141.298V37.4569H150.627V33.4998ZM155.606 30.5883H170.163V33.4998H164.34V45.1459H161.429V33.4998H155.606V30.5883ZM175.137 45.1459H172.225V30.5883H175.137V45.1459ZM189.247 30.5883C190.969 30.5883 192.363 31.9621 192.363 33.6845V42.0497C192.363 43.7721 190.969 45.1459 189.247 45.1459H180.287C179.88 45.148 179.476 45.0694 179.1 44.9145C178.723 44.7597 178.381 44.5317 178.093 44.2437C177.805 43.9558 177.577 43.6137 177.422 43.2371C177.267 42.8605 177.189 42.4569 177.191 42.0497V33.6845C177.189 33.2773 177.267 32.8737 177.422 32.4971C177.577 32.1205 177.805 31.7784 178.093 31.4905C178.381 31.2025 178.723 30.9745 179.1 30.8197C179.476 30.6648 179.88 30.5862 180.287 30.5883H189.247ZM189.431 33.4998H180.102V42.2344H189.431V33.4998ZM206.651 30.5883H209.583V43.2597C209.583 44.3053 208.722 45.1459 207.677 45.1459H205.421C204.703 45.1662 204.068 44.7765 203.74 44.1415L198.081 33.4998H197.322V45.1459H194.411V32.4953C194.411 31.4289 195.251 30.5883 196.297 30.5883H198.675C199.372 30.5883 200.029 30.9577 200.356 31.5933L206.016 42.2344H206.651V30.5883Z" fill="white"/>
<mask id="mask0_1_39981" style="mask-type:luminance" maskUnits="userSpaceOnUse" x="0" y="11" width="39" height="35">
<path d="M0.5 11.9337H38.0938V45.6159H0.5V11.9337Z" fill="white"/>
</mask>
<g mask="url(#mask0_1_39981)">
<path d="M37.9004 38.4899L31.6952 45.1574C31.5604 45.3023 31.3971 45.4179 31.2156 45.4969C31.034 45.5759 30.8382 45.6167 30.6402 45.6166H1.22183C1.11664 45.6168 1.01268 45.5939 0.91727 45.5496C0.821862 45.5053 0.737325 45.4406 0.669608 45.3601C0.601892 45.2796 0.552642 45.1853 0.525326 45.0837C0.498009 44.9821 0.49329 44.8758 0.511501 44.7722C0.535537 44.633 0.599422 44.5052 0.694934 44.4021L6.90575 37.7346C7.04022 37.5903 7.20293 37.4751 7.38376 37.3962C7.5646 37.3173 7.75972 37.2764 7.95701 37.2761H37.3747C37.5151 37.276 37.6525 37.3171 37.7698 37.3942C37.8872 37.4713 37.9794 37.5811 38.0351 37.71C38.0909 37.8389 38.1079 37.9814 38.0841 38.1199C38.0603 38.2584 37.996 38.3869 37.9004 38.4899ZM31.6952 25.0638C31.5604 24.9188 31.3971 24.8033 31.2156 24.7242C31.034 24.6452 30.8382 24.6045 30.6402 24.6046H1.22183C1.11658 24.6043 1.01255 24.6271 0.917068 24.6713C0.821582 24.7156 0.736965 24.7803 0.669179 24.8608C0.601392 24.9413 0.552086 25.0357 0.524734 25.1373C0.497381 25.239 0.492648 25.3454 0.510868 25.449C0.534904 25.5875 0.59879 25.7159 0.694302 25.819L6.90511 32.4859C7.03954 32.6304 7.20221 32.7457 7.38305 32.8247C7.56389 32.9037 7.75904 32.9447 7.95638 32.9451H37.3741C37.4791 32.9451 37.5829 32.9221 37.6781 32.8778C37.7733 32.8334 37.8577 32.7688 37.9253 32.6884C37.9929 32.608 38.0422 32.5138 38.0695 32.4124C38.0969 32.311 38.1018 32.2048 38.0838 32.1013C38.06 31.9628 37.9962 31.8342 37.9004 31.7313L31.6952 25.0638ZM1.22057 20.2736H30.6395C30.8374 20.2738 31.0332 20.2331 31.2147 20.1541C31.3961 20.075 31.5593 19.9594 31.694 19.8144L37.8997 13.1476C37.9954 13.0447 38.0591 12.9162 38.0829 12.7777C38.1066 12.6392 38.0895 12.4968 38.0336 12.368C37.9777 12.2391 37.8854 12.1293 37.768 12.052C37.6507 11.9748 37.5133 11.9335 37.3728 11.9331H7.95701C7.75971 11.9334 7.56457 11.9742 7.38372 12.0531C7.20287 12.132 7.04018 12.2473 6.90575 12.3917L0.696199 19.0598C0.600591 19.1626 0.536977 19.2909 0.513133 19.4292C0.489288 19.5675 0.506245 19.7098 0.561932 19.8386C0.617618 19.9674 0.709622 20.0772 0.826701 20.1546C0.94378 20.2319 1.08086 20.2735 1.2212 20.2743L1.22057 20.2736Z" fill="url(#paint0_linear_1_39981)"/>
</g>
</g>
<defs>
<linearGradient id="paint0_linear_1_39981" x1="3.67415" y1="46.4193" x2="34.5872" y2="11.6339" gradientUnits="userSpaceOnUse">
<stop offset="0.08" stop-color="#9945FF"/>
<stop offset="0.3" stop-color="#8752F3"/>
<stop offset="0.5" stop-color="#5497D5"/>
<stop offset="0.6" stop-color="#43B4CA"/>
<stop offset="0.72" stop-color="#28E0B9"/>
<stop offset="0.97" stop-color="#19FB9B"/>
</linearGradient>
<clipPath id="clip0_1_39981">
<rect width="210" height="56" fill="white" transform="translate(0.5 0.700195)"/>
</clipPath>
</defs>
</svg>
