<svg width="101" height="31" viewBox="0 0 101 31" fill="none" xmlns="http://www.w3.org/2000/svg">
<g clip-path="url(#clip0_1_39955)">
<g clip-path="url(#clip1_1_39955)">
<path d="M17.4791 21.0378C15.9635 21.0378 15.2349 19.8726 15.6154 18.5246C16.4008 15.7309 21.448 11.5909 24.8874 11.5909C27.3955 11.5909 27.2046 13.8351 25.7342 15.7493L24.9215 16.6489C22.0064 19.5095 19.304 21.0378 17.4791 21.0378ZM29.7723 2.19849C25.3828 2.20019 20.549 4.88553 17.5132 7.42871L17.7529 7.7761C22.4649 4.47303 29.0032 2.3253 30.8056 5.5469C31.7574 7.24633 30.1419 10.6786 27.8666 13.3912C28.4107 12.1933 28.0514 9.89315 24.8789 9.89315C19.605 9.89315 9.22266 16.8794 9.22266 24.0293C9.22266 26.8933 11.2095 28.7618 14.4822 28.7618C23.2422 28.7618 35.1222 14.4027 35.1222 7.19076C35.1222 4.64315 33.6566 2.19849 29.7723 2.19849ZM41.0503 21.0378C40.5403 21.0378 40.1158 20.8598 39.8503 20.535C39.5735 20.1944 39.4909 19.7117 39.6222 19.2133C39.9137 18.1319 41.0792 17.2823 42.2779 17.2823H45.0972L44.0898 21.0378H41.0503ZM49.153 9.77962C48.3467 8.78826 47.0414 8.34474 46.1073 8.34474H40.9841L40.1145 11.5881H44.9462L45.4091 11.6369C45.4139 11.6369 45.8527 11.688 46.0974 12.0173C46.2952 12.2928 46.3241 12.7019 46.182 13.2385L45.9536 14.0921H42.9092C40.289 14.0921 36.6362 15.9719 35.8217 19.008C35.4167 20.522 35.7716 21.8335 36.5584 22.7972C37.3391 23.7538 38.8125 24.2819 40.4042 24.2819H43.2236H43.2219H46.8052L48.4858 18.0054L49.723 13.3919C50.2088 11.5779 49.6824 10.4256 49.153 9.77962ZM84.3457 8.34474C82.9596 8.34474 81.6716 8.75485 80.6244 9.5311C79.5669 10.3142 78.9836 11.2551 78.6358 12.5529C77.8814 15.3658 80.0919 16.7233 81.868 17.6856C83.142 18.3756 84.2438 18.9709 84.0051 19.8525C83.8367 20.4852 83.5603 21.0388 81.9931 21.0388H77.2091L76.3412 24.2819H81.6365C83.0564 24.2819 84.3669 23.9863 85.4227 23.1756C86.4795 22.3622 87.0767 21.2291 87.4459 19.846C87.8005 18.5297 87.5615 17.2725 86.7144 16.3343C86.0083 15.5464 84.9928 14.9993 84.0979 14.5159C82.9511 13.8988 81.8697 13.3166 82.0586 12.6109C82.1741 12.1837 82.5979 11.5881 83.5241 11.5881H88.1779L89.0479 8.34474H84.3457ZM56.5821 8.34474C55.1963 8.34474 53.9087 8.75485 52.8611 9.5311C51.8036 10.3142 51.2203 11.2551 50.8691 12.5529C50.1164 15.3658 52.3286 16.7233 54.1044 17.6856C55.379 18.3756 56.4781 18.9709 56.2419 19.8525C56.0717 20.4852 55.7966 21.0388 54.2295 21.0388H49.4462L48.5765 24.2819H53.8715C55.2931 24.2819 56.6032 23.9863 57.659 23.1756C58.7175 22.3622 59.3134 21.2291 59.6827 19.846C60.0358 18.5297 59.7965 17.2725 58.9528 16.3343C58.2467 15.5464 57.2295 14.9993 56.3329 14.5159C55.1878 13.8988 54.1078 13.3166 54.297 12.6109C54.4105 12.1837 54.8359 11.5881 55.7605 11.5881H60.4115L61.2829 8.34474H56.5821Z" fill="white"/>
<path d="M63.8076 8.34473L59.6543 24.2819H63.1633L67.3132 8.34473H63.8076Z" fill="white"/>
<path d="M76.6481 8.34473C70.4704 8.36689 67.2376 12.481 66.2115 16.3135C64.9958 20.8578 67.4149 24.2822 71.8389 24.2822H74.8034L75.6714 21.0392H72.7078C71.052 21.0392 68.7751 19.7362 69.6928 16.3135C70.4217 13.593 73.0743 11.5885 75.984 11.5885H77.8665L78.7361 8.34507L76.6481 8.34473Z" fill="white"/>
</g>
</g>
<defs>
<clipPath id="clip0_1_39955">
<rect width="100" height="30" fill="white" transform="translate(0.130859 0.47998)"/>
</clipPath>
<clipPath id="clip1_1_39955">
<rect width="100" height="30" fill="white" transform="translate(0.130859 0.47998)"/>
</clipPath>
</defs>
</svg>
