<svg width="90" height="51" viewBox="0 0 90 51" fill="none" xmlns="http://www.w3.org/2000/svg">
<g clip-path="url(#clip0_1_39756)">
<g clip-path="url(#clip1_1_39756)">
<g clip-path="url(#clip2_1_39756)">
<path d="M30.5703 27.1137V17.6902H31.4571C32.1796 17.6902 32.7653 18.2856 32.7653 19.02V23.21C34.1865 21.921 35.3951 21.4051 37.0059 21.372C40.0954 21.3077 42.7769 23.6403 43.0316 26.771C43.3362 30.5113 40.6604 33.3266 37.1745 33.3266C33.3476 33.3266 30.5703 30.9143 30.5703 27.1137ZM32.7289 27.8536C32.9454 29.8006 34.7745 31.4088 36.7033 31.44C39.2162 31.4789 40.9286 29.8142 40.9286 27.3513C40.9286 24.8883 39.2545 23.2625 36.8125 23.2625C34.2018 23.2567 32.432 25.1842 32.7289 27.8536ZM46.6938 21.6076V23.2859C48.0748 21.7283 48.8926 21.3097 50.5092 21.3097C50.9794 21.3102 51.4489 21.3486 51.9131 21.4246V23.6539C51.4177 23.5155 50.9061 23.446 50.3924 23.4475C49.2221 23.4475 48.2395 23.8369 47.5193 24.5729C46.8872 25.2173 46.6995 25.7216 46.6995 26.7341V32.9411H44.4241V21.6076H46.6938ZM52.4533 25.3556C52.5701 24.2516 52.7808 23.6539 53.2481 23.0795C54.1848 21.9113 55.8703 21.3097 58.2568 21.3097C60.153 21.3097 61.534 21.6095 62.4936 22.252C63.2904 22.7797 63.6179 23.5624 63.6179 24.9409V29.9739C63.6179 31.0778 63.8995 31.4672 64.6713 31.4458C64.8438 31.4396 65.0158 31.424 65.1866 31.3991V32.9158C64.8028 33.0491 64.3986 33.1111 63.9933 33.0988C62.5664 33.0988 61.9113 32.6627 61.467 31.3971C60.063 32.7075 58.6112 33.2585 56.5292 33.2585C53.7442 33.2585 52.0357 31.9715 52.0357 29.8785C52.0235 28.6849 52.7143 27.5995 53.7902 27.1215C54.633 26.7535 55.1482 26.6387 57.5577 26.3855C59.6167 26.1792 59.9691 26.1324 60.5533 25.9475C61.1854 25.7411 61.467 25.3965 61.467 24.8221C61.467 23.6033 60.4614 23.0523 58.3545 23.0523C56.3625 23.0523 55.3359 23.4533 54.9241 24.4775C54.7201 25.0012 54.2236 25.3464 53.6695 25.3497L52.4533 25.3556ZM61.4555 27.287C60.0119 27.7138 58.5295 27.9911 57.031 28.1145C54.995 28.3209 54.3629 28.7122 54.3629 29.7461C54.3629 30.8948 55.2995 31.4984 57.1478 31.4984C58.6686 31.4984 59.8159 31.109 60.6357 30.3497C61.2907 29.7286 61.4555 29.2924 61.4555 28.2079V27.287ZM70.6798 32.9392H70.0937C69.5774 32.9425 69.1051 32.6441 68.8794 32.1721L63.9703 21.6076H65.3341C66.1287 21.6011 66.8522 22.0723 67.1786 22.8089L70.4538 30.4022L73.8382 22.7797C74.1694 22.0547 74.8869 21.5934 75.6732 21.5997H76.9124L71.8884 32.1837C71.6604 32.6494 71.1915 32.9424 70.6798 32.9392ZM78.4504 27.9295C78.6841 30.1141 80.3658 31.4692 82.873 31.4692C84.2961 31.4692 85.363 31.0389 86.0238 30.1803C86.4092 29.6879 86.9945 29.4011 87.6135 29.4015H88.9332C87.784 31.9754 85.7269 33.241 82.6604 33.241C78.8297 33.241 76.2478 30.8734 76.2478 27.3337C76.2478 23.7941 78.8929 21.3116 82.7083 21.3116C85.4683 21.3116 87.6882 22.5752 88.5827 24.6916C88.9811 25.6651 89.1439 26.5296 89.1439 27.9315L78.4504 27.9295ZM86.8282 26.1772C86.313 24.1776 84.7922 23.0503 82.6853 23.0503C80.5784 23.0503 79.0576 24.1776 78.5194 26.1772H86.8282Z" fill="white"/>
<path d="M16.9897 11.6536C17.1559 11.6536 17.3141 11.7263 17.4239 11.8533L19.5502 14.3109C19.5766 14.3059 19.604 14.3008 19.6323 14.2958C20.1444 14.2045 20.6723 14.1711 21.1789 14.2316C21.8263 14.3088 22.3801 14.5347 22.7918 14.9541C23.2217 15.3921 23.6494 15.839 24.0555 16.2711C24.1977 16.4224 24.327 16.5611 24.4411 16.6842C24.4811 16.7274 24.5164 16.7656 24.5466 16.7984C24.7377 17.0068 24.7817 17.25 24.6968 17.4624L24.1481 18.8344L24.8791 20.9624C24.9172 21.0732 24.9218 21.1931 24.8924 21.3067C24.8872 21.3268 24.8872 21.3268 24.8625 21.4222C24.8286 21.5528 24.8286 21.5528 24.7779 21.7487C24.6868 22.1004 24.5853 22.4923 24.476 22.9145C24.1636 24.1207 23.8513 25.3279 23.5598 26.4557C22.8402 29.2398 22.3684 31.0728 22.2549 31.5296C21.6365 34.0163 21.146 34.8795 19.5603 36.0163C18.1711 37.0123 15.2723 39.0108 14.715 39.3657C14.6617 39.3996 14.6028 39.4392 14.5248 39.493C14.4944 39.5139 14.3472 39.6164 14.3049 39.6455C14.034 39.8322 13.8407 39.9518 13.6324 40.0505C13.3682 40.1757 13.1154 40.2454 12.8591 40.2454C12.6027 40.2454 12.35 40.1757 12.0858 40.0505C11.8775 39.9518 11.6842 39.8322 11.4132 39.6455C11.371 39.6164 11.2238 39.5139 11.1934 39.493C11.1154 39.4392 11.0565 39.3996 11.0032 39.3657C10.4459 39.0108 7.54704 37.0123 6.15784 36.0163C4.57216 34.8795 4.08163 34.0163 3.46332 31.5296C3.34973 31.0728 2.87791 29.2398 2.16361 26.4761C1.86686 25.328 1.55453 24.1208 1.2422 22.9145C1.13288 22.4923 1.03137 22.1004 0.940276 21.7487C0.889523 21.5528 0.889523 21.5528 0.855689 21.4222C0.830965 21.3268 0.830965 21.3268 0.825762 21.3067C0.796334 21.1931 0.80096 21.0732 0.839045 20.9624L1.57007 18.8344L1.02141 17.4624C0.936495 17.25 0.980464 17.0068 1.13409 16.8391C1.20178 16.7656 1.23705 16.7274 1.27706 16.6842C1.39114 16.5611 1.52049 16.4224 1.66265 16.2711C2.06875 15.839 2.4965 15.3921 2.9264 14.9541C3.3381 14.5347 3.89185 14.3088 4.53923 14.2316C5.04591 14.1711 5.57375 14.2045 6.08588 14.2958C6.11419 14.3008 6.14157 14.3059 6.16797 14.3109L8.29424 11.8533C8.40407 11.7263 8.56226 11.6536 8.72847 11.6536H16.9897ZM16.7282 12.8309H8.98993L6.81055 15.35C6.66395 15.5194 6.43504 15.5886 6.2213 15.5281C6.21016 15.525 6.18234 15.5177 6.13989 15.5077C6.06536 15.49 5.98009 15.4722 5.88616 15.4554C5.47543 15.3822 5.05383 15.3555 4.67405 15.4009C4.2642 15.4498 3.94899 15.5784 3.74506 15.7861C3.32158 16.2176 2.89955 16.6584 2.49888 17.0848C2.40425 17.1855 2.31542 17.2805 2.23316 17.3688L2.72419 18.5968C2.7773 18.7296 2.78094 18.8775 2.73445 19.0129L1.9897 21.1808C2.00991 21.2588 2.01729 21.2872 2.0591 21.4486C2.1502 21.8003 2.25172 22.1923 2.36105 22.6146C2.67342 23.821 2.98579 25.0283 3.27734 26.1563C3.99875 28.9475 4.47003 30.7785 4.58501 31.2408C5.14129 33.478 5.49542 34.1012 6.82427 35.0539C8.19768 36.0386 11.0812 38.0265 11.617 38.3677C11.6844 38.4106 11.7541 38.4574 11.8428 38.5186C11.8757 38.5413 12.0225 38.6435 12.062 38.6706C12.2856 38.8247 12.4356 38.9175 12.5742 38.9832C12.6977 39.0418 12.7932 39.0681 12.8591 39.0681C12.9249 39.0681 13.0205 39.0418 13.1439 38.9832C13.2826 38.9175 13.4325 38.8247 13.6562 38.6706C13.6956 38.6435 13.8425 38.5413 13.8754 38.5186C13.9641 38.4574 14.0338 38.4106 14.1012 38.3677C14.637 38.0265 17.5205 36.0386 18.8939 35.0539C20.2228 34.1012 20.5769 33.478 21.1332 31.2408C21.2481 30.7785 21.7194 28.9475 22.4356 26.1767C22.7324 25.0282 23.0448 23.821 23.3571 22.6145C23.4664 22.1923 23.568 21.8003 23.6591 21.4486C23.7009 21.2872 23.7083 21.2588 23.7285 21.1808L22.9837 19.0129C22.9372 18.8775 22.9409 18.7296 22.994 18.5968L23.485 17.3688C23.4028 17.2805 23.3139 17.1855 23.2193 17.0848C22.8186 16.6584 22.3966 16.2176 21.9731 15.7861C21.7692 15.5784 21.454 15.4498 21.0441 15.4009C20.6643 15.3555 20.2427 15.3822 19.832 15.4554C19.7381 15.4722 19.6528 15.49 19.5783 15.5077C19.5358 15.5177 19.508 15.525 19.4969 15.5281C19.2831 15.5886 19.0542 15.5194 18.9076 15.35L16.7282 12.8309ZM12.8591 29.3028C13.0163 29.3028 14.0239 29.6651 14.8324 30.0914C15.6408 30.5176 16.2267 30.819 16.414 30.9385C16.6013 31.0579 16.4871 31.2831 16.3165 31.406C16.1459 31.5289 13.8533 33.3375 13.6309 33.5374C13.4083 33.7374 13.0814 34.0675 12.8591 34.0675C12.6368 34.0675 12.3098 33.7374 12.0873 33.5374C11.8647 33.3375 9.57225 31.5289 9.40164 31.406C9.23102 31.2831 9.11685 31.0579 9.30411 30.9385C9.49142 30.819 10.0773 30.5176 10.8858 30.0914C11.6942 29.6651 12.7018 29.3028 12.8591 29.3028ZM12.8622 16.4206C12.9033 16.4212 13.3508 16.4334 14.0065 16.656C14.6949 16.8898 15.4407 17.1821 15.7849 17.1821C16.1292 17.1821 18.6821 16.6852 18.6821 16.6852C18.6821 16.6852 21.7075 20.4114 21.7075 21.2078C21.7075 22.0041 21.327 22.2143 20.9443 22.6283C20.5616 23.0423 18.8904 24.8504 18.6758 25.0825C18.4612 25.3147 18.0144 25.6668 18.2772 26.3004C18.54 26.9341 18.9277 27.7404 18.4966 28.5582C18.0654 29.376 17.3267 29.9219 16.8534 29.8316C16.3801 29.7413 15.2686 29.1495 14.8599 28.8792C14.4511 28.6089 13.1556 27.5203 13.1556 27.1038C13.1556 26.6874 14.4948 25.9396 14.7421 25.7697C14.9896 25.5998 16.1181 24.9422 16.1412 24.6841C16.1643 24.4259 16.1555 24.3502 15.8225 23.7124C15.4894 23.0746 14.8897 22.2234 14.9895 21.6571C15.0893 21.0909 16.0566 20.7964 16.7469 20.5308C17.437 20.2653 18.766 19.7637 18.9319 19.6857C19.098 19.6077 19.0551 19.5334 18.5522 19.4848C18.0493 19.4363 16.6222 19.2433 15.9788 19.426C15.3354 19.6087 14.2362 19.8867 14.1471 20.0341C14.0581 20.1815 13.9796 20.1865 14.071 20.695C14.1624 21.2035 14.6332 23.6435 14.6789 24.0769C14.7246 24.5103 14.814 24.7968 14.3553 24.9037C13.8966 25.0105 13.1244 25.196 12.8591 25.196C12.5938 25.196 11.8216 25.0105 11.3629 24.9037C10.9042 24.7968 10.9935 24.5103 11.0393 24.0769C11.085 23.6435 11.5557 21.2035 11.6472 20.695C11.7385 20.1865 11.66 20.1815 11.571 20.0341C11.482 19.8867 10.3827 19.6087 9.73933 19.426C9.09593 19.2433 7.66886 19.4363 7.16595 19.4848C6.66305 19.5334 6.62014 19.6077 6.78617 19.6857C6.95219 19.7637 8.28116 20.2653 8.97132 20.5308C9.66153 20.7964 10.6288 21.0909 10.7287 21.6571C10.8285 22.2234 10.2287 23.0746 9.89571 23.7124C9.56268 24.3502 9.55385 24.4259 9.57697 24.6841C9.60003 24.9422 10.7285 25.5998 10.976 25.7697C11.2234 25.9396 12.5625 26.6874 12.5625 27.1038C12.5625 27.5203 11.2671 28.6089 10.8583 28.8792C10.4496 29.1495 9.33803 29.7413 8.86473 29.8316C8.39143 29.9219 7.65279 29.376 7.2216 28.5582C6.79047 27.7404 7.17817 26.9341 7.44093 26.3004C7.70374 25.6668 7.257 25.3147 7.04232 25.0825C6.82776 24.8504 5.15647 23.0423 4.77381 22.6283C4.39116 22.2143 4.01062 22.0041 4.01062 21.2078C4.01062 20.4114 7.03607 16.6852 7.03607 16.6852C7.03607 16.6852 9.58902 17.1821 9.93323 17.1821C10.2775 17.1821 11.0233 16.8898 11.7117 16.656C12.4001 16.4222 12.8591 16.4205 12.8591 16.4205L12.8622 16.4206Z" fill="white"/>
</g>
</g>
</g>
<defs>
<clipPath id="clip0_1_39756">
<rect width="88.88" height="50" fill="white" transform="translate(0.632812 0.879883)"/>
</clipPath>
<clipPath id="clip1_1_39756">
<rect width="88.88" height="50" fill="white" transform="translate(0.632812 0.879883)"/>
</clipPath>
<clipPath id="clip2_1_39756">
<rect width="88.88" height="29.1564" fill="white" transform="translate(0.632812 11.3018)"/>
</clipPath>
</defs>
</svg>
