<svg width="90" height="51" viewBox="0 0 90 51" fill="none" xmlns="http://www.w3.org/2000/svg">
<g clip-path="url(#clip0_1_39763)">
<g clip-path="url(#clip1_1_39763)">
<g clip-path="url(#clip2_1_39763)">
<path d="M21.7542 19.94L21.2618 19.0799C21.0962 18.7917 20.7036 18.7395 20.4676 18.9733L19.3443 20.0966C19.1741 20.2668 19.1491 20.5322 19.2807 20.7319C19.6915 21.3605 20.0205 22.0368 20.2588 22.7471H20.2611C20.5651 23.648 20.724 24.6033 20.724 25.5655C20.724 30.4308 16.7641 34.3907 11.8988 34.3907C10.4351 34.3907 9.02814 34.039 7.76189 33.365L9.66581 31.4611C10.3761 31.7311 11.134 31.8695 11.8988 31.8695C15.3753 31.8695 18.2028 29.042 18.2028 25.5655C18.2028 25.3476 18.1892 25.1298 18.1665 24.9142C18.0916 24.1835 17.8897 23.4755 17.572 22.8197C17.4199 22.5065 17.0069 22.4362 16.7596 22.6812L15.6181 23.8227C15.4956 23.9452 15.4434 24.1245 15.4842 24.2947L15.5795 24.7032C15.6454 24.9891 15.6794 25.2796 15.6794 25.5678C15.6794 27.6532 13.982 29.3506 11.8965 29.3506C11.2407 29.3506 10.5917 29.1782 10.0244 28.8537L9.52284 28.5655C9.32542 28.452 9.0758 28.4861 8.91468 28.6472L4.26495 33.2969C4.04937 33.5125 4.07206 33.8688 4.31487 34.0526L5.0002 34.5768C6.99487 36.1063 9.37988 36.9141 11.8965 36.9141C18.1529 36.9141 23.2429 31.8242 23.2429 25.5678C23.2429 23.5935 22.7278 21.6465 21.7497 19.94H21.7542ZM18.7974 16.5588C16.8027 15.0293 14.4177 14.2214 11.901 14.2214C5.64468 14.2214 0.554688 19.3114 0.554688 25.5678C0.554688 27.5444 1.06981 29.4891 2.04787 31.1956L2.54031 32.0557C2.70596 32.3439 3.09855 32.3961 3.33455 32.1623L4.45784 31.0391C4.62804 30.8689 4.653 30.6034 4.52138 30.4037C4.11065 29.7751 3.7816 29.0988 3.54333 28.3885H3.54106C3.23697 27.4876 3.07812 26.5323 3.07812 25.5701C3.07586 20.7025 7.03572 16.7426 11.901 16.7426C13.3647 16.7426 14.7717 17.0943 16.0379 17.7683L14.134 19.6722C13.4237 19.4022 12.6658 19.2638 11.901 19.2638C8.42451 19.2638 5.59702 22.0913 5.59702 25.5678C5.59702 25.6722 5.62425 26.151 5.63333 26.2327C5.71049 26.9566 5.91245 27.6624 6.22788 28.3137C6.37992 28.6268 6.79293 28.6972 7.04026 28.4521L8.17943 27.3129C8.30197 27.1904 8.35417 27.0111 8.31332 26.8409L8.21801 26.4324C8.1522 26.1465 8.11816 25.856 8.11816 25.5678C8.11816 23.4824 9.81558 21.7849 11.901 21.7849C12.5569 21.7849 13.2059 21.9574 13.7732 22.2819L14.2747 22.5701C14.4721 22.6836 14.7218 22.6495 14.8829 22.4884L19.5326 17.8387C19.7482 17.6231 19.7255 17.2668 19.4827 17.083L18.7974 16.5588ZM37.9092 28.6971C37.739 28.5541 37.5053 28.5609 37.3124 28.7107C36.5817 29.2758 35.7375 29.8 34.5008 29.8C32.2383 29.8 30.3979 27.8938 30.3979 25.5496C30.3979 23.2054 32.2315 21.2834 34.4849 21.2834C35.4652 21.2834 36.5204 21.6941 37.2988 22.3772C37.4395 22.5179 37.5688 22.5406 37.6528 22.536C37.73 22.5315 37.8411 22.4974 37.9433 22.3704L38.6785 21.6124C38.7738 21.5148 38.826 21.39 38.8215 21.2607C38.8169 21.1313 38.7579 21.0088 38.6535 20.9135C37.3714 19.7948 36.0802 19.2955 34.4667 19.2955C31.022 19.2955 28.2194 22.1162 28.2194 25.5814C28.2194 29.0466 31.022 31.8332 34.4667 31.8332C36.087 31.8332 37.5439 31.2478 38.6785 30.1404C38.7761 30.0428 38.8306 29.9021 38.826 29.7637C38.8215 29.6434 38.7738 29.5367 38.6944 29.4664L37.9092 28.6926V28.6971ZM43.2647 19.468H42.1505C41.8986 19.468 41.6785 19.6903 41.6785 19.9422V31.1933C41.6785 31.4452 41.8986 31.6676 42.1505 31.6676H43.2647C43.5166 31.6676 43.7367 31.4452 43.7367 31.1933V19.9422C43.7367 19.6903 43.5166 19.468 43.2647 19.468ZM56.4538 23.2576C56.4538 21.1676 54.7336 19.468 52.6209 19.468H48.0279C47.767 19.468 47.5559 19.6813 47.5559 19.9422V31.1933C47.5559 31.4543 47.7692 31.6676 48.0279 31.6676H49.1263C49.3781 31.6676 49.5983 31.4452 49.5983 31.1933V27.011H51.9016L54.105 31.4293C54.1618 31.5428 54.3138 31.6653 54.5112 31.6653H55.8274C56.009 31.6653 56.161 31.5836 56.245 31.4407C56.3312 31.2954 56.3335 31.1071 56.2472 30.9482L54.012 26.7773C55.5211 26.1056 56.4515 24.769 56.4515 23.2531L56.4538 23.2576ZM54.3932 23.2917C54.3932 24.3514 53.5196 25.2478 52.4848 25.2478H49.63V21.4195H52.4848C53.5196 21.4195 54.3932 22.275 54.3932 23.2894V23.2917ZM68.454 28.6971C68.2838 28.5541 68.0499 28.5609 67.8571 28.7107C67.1265 29.2758 66.2818 29.8 65.045 29.8C62.7828 29.8 60.9424 27.8938 60.9424 25.5496C60.9424 23.2054 62.776 21.2834 65.0293 21.2834C66.0095 21.2834 67.0647 21.6941 67.8432 22.3772C67.9838 22.5179 68.1136 22.5406 68.1974 22.536C68.2743 22.5315 68.3859 22.4974 68.488 22.3704L69.223 21.6124C69.3182 21.5148 69.3705 21.39 69.3661 21.2607C69.3617 21.1313 69.3025 21.0088 69.1978 20.9135C67.9157 19.7948 66.6247 19.2955 65.011 19.2955C61.5664 19.2955 58.7639 22.1162 58.7639 25.5814C58.7639 29.0466 61.5664 31.8332 65.011 31.8332C66.6316 31.8332 68.0884 31.2478 69.223 30.1404C69.3207 30.0428 69.3749 29.9021 69.3705 29.7637C69.3661 29.6434 69.3182 29.5367 69.2388 29.4664L68.454 28.6926V28.6971ZM78.7086 29.7841H74.286V19.9422C74.286 19.6903 74.0654 19.468 73.8139 19.468H72.6994C72.4385 19.468 72.2273 19.6813 72.2273 19.9422V31.1933C72.2273 31.4543 72.441 31.6676 72.6994 31.6676H78.7111C78.9721 31.6676 79.1852 31.4543 79.1852 31.1933V30.2584C79.1852 29.9974 78.9721 29.7841 78.7111 29.7841H78.7086ZM88.7205 21.3697C88.9815 21.3697 89.1927 21.1564 89.1927 20.8954V19.9445C89.1927 19.6836 88.9796 19.4703 88.7205 19.4703H81.965C81.704 19.4703 81.4929 19.6836 81.4929 19.9445V31.1956C81.4929 31.4566 81.7066 31.6699 81.965 31.6699H88.7205C88.9815 31.6699 89.1927 31.4566 89.1927 31.1956V30.2607C89.1927 29.9997 88.9796 29.7864 88.7205 29.7864H83.5378V26.437H87.8948C88.1557 26.437 88.3669 26.2236 88.3669 25.9627V25.0119C88.3669 24.76 88.1463 24.5376 87.8948 24.5376H83.5378V21.3742H88.7205V21.3697Z" fill="white"/>
</g>
</g>
</g>
<defs>
<clipPath id="clip0_1_39763">
<rect width="88.88" height="50" fill="white" transform="translate(0.5 0.879883)"/>
</clipPath>
<clipPath id="clip1_1_39763">
<rect width="88.88" height="50" fill="white" transform="translate(0.5 0.879883)"/>
</clipPath>
<clipPath id="clip2_1_39763">
<rect width="88.88" height="23.3231" fill="white" transform="translate(0.5 14.2183)"/>
</clipPath>
</defs>
</svg>
