<svg width="90" height="51" viewBox="0 0 90 51" fill="none" xmlns="http://www.w3.org/2000/svg">
<g clip-path="url(#clip0_1_39767)">
<g clip-path="url(#clip1_1_39767)">
<g clip-path="url(#clip2_1_39767)">
<path d="M19.02 18.6784C17.5869 18.0229 16.0649 17.5452 14.4762 17.2786C14.2763 17.623 14.0541 18.0896 13.8985 18.4562C12.2088 18.2118 10.5313 18.2118 8.86483 18.4562C8.70929 18.0896 8.47598 17.623 8.28711 17.2786C6.68738 17.5452 5.16538 18.0229 3.74226 18.6784C0.864916 22.9222 0.0872506 27.066 0.476082 31.1542C2.38691 32.5429 4.23109 33.3873 6.04305 33.9428C6.48743 33.3428 6.88737 32.6985 7.23177 32.0208C6.57631 31.7764 5.95418 31.4764 5.35427 31.1209C5.5098 31.0099 5.66534 30.8877 5.80976 30.7655C9.43144 32.4208 13.3542 32.4208 16.9314 30.7655C17.087 30.8877 17.2314 31.0099 17.3869 31.1209C16.787 31.4764 16.1649 31.7764 15.5094 32.0208C15.8538 32.6985 16.2538 33.3428 16.6981 33.9428C18.509 33.3873 20.3643 32.5429 22.2651 31.1542C22.7427 26.4217 21.5085 22.3112 19.02 18.6784ZM7.73168 28.6324C6.64295 28.6324 5.75419 27.6437 5.75419 26.4328C5.75419 25.2219 6.62073 24.2331 7.73168 24.2331C8.8315 24.2331 9.73134 25.2219 9.70912 26.4328C9.70912 27.6437 8.8315 28.6324 7.73168 28.6324ZM15.0317 28.6324C13.943 28.6324 13.0531 27.6437 13.0531 26.4328C13.0531 25.2219 13.9207 24.2331 15.0317 24.2331C16.1316 24.2331 17.0314 25.2219 17.0092 26.4328C17.0092 27.6437 16.1427 28.6324 15.0317 28.6324ZM29.9637 20.7665H34.6864C35.8196 20.7665 36.7861 20.9443 37.5749 21.2998C38.3636 21.6553 38.9524 22.1441 39.3413 22.7773C39.7301 23.4106 39.93 24.1327 39.93 24.9549C39.93 25.7547 39.7301 26.4769 39.3191 27.1323C38.908 27.7767 38.2859 28.2988 37.4527 28.6765C36.6195 29.0542 35.5862 29.2431 34.3531 29.2431H29.9637V20.7665ZM34.2976 27.0878C35.0641 27.0878 35.6529 26.899 36.064 26.5102C36.475 26.1324 36.6861 25.5992 36.6861 24.9437C36.6861 24.3327 36.4973 23.8438 36.1306 23.4773C35.764 23.1106 35.2086 22.9218 34.4642 22.9218H32.9866V27.0878H34.2976ZM47.2864 29.2324C46.631 29.0657 46.0422 28.8213 45.52 28.488V26.4771C45.92 26.7882 46.4421 27.0326 47.1087 27.2326C47.7752 27.4326 48.4196 27.5326 49.0417 27.5326C49.3305 27.5326 49.5527 27.4993 49.6972 27.4215C49.8416 27.3437 49.9194 27.2548 49.9194 27.1437C49.9194 27.0215 49.8749 26.9215 49.7972 26.8438C49.7194 26.766 49.5638 26.6993 49.3305 26.6327L47.8752 26.3106C47.042 26.1217 46.4532 25.8439 46.0977 25.5106C45.7422 25.1773 45.5756 24.7219 45.5756 24.1664C45.5756 23.6998 45.7311 23.2888 46.031 22.9444C46.3421 22.6 46.7754 22.3334 47.342 22.1445C47.9085 21.9557 48.564 21.8557 49.3305 21.8557C50.0082 21.8557 50.6303 21.9224 51.1969 22.0779C51.7635 22.2223 52.2301 22.4111 52.5967 22.6333V24.533C52.219 24.3109 51.7747 24.1331 51.2858 23.9998C50.7859 23.8665 50.2749 23.7998 49.7527 23.7998C48.9972 23.7998 48.6196 23.9331 48.6196 24.1887C48.6196 24.3109 48.6751 24.3997 48.7973 24.4664C48.9195 24.533 49.1306 24.5886 49.4416 24.6552L50.6526 24.8774C51.4414 25.0107 52.0301 25.2551 52.419 25.5995C52.8078 25.9439 52.9967 26.4438 52.9967 27.1215C52.9967 27.8548 52.6745 28.4435 52.0301 28.8657C51.3858 29.299 50.4748 29.51 49.2972 29.51C48.6085 29.4878 47.9419 29.3989 47.2864 29.2324ZM55.9971 28.9771C55.3083 28.6327 54.7751 28.1773 54.4307 27.5995C54.0751 27.0218 53.9085 26.3664 53.9085 25.6331C53.9085 24.9111 54.0863 24.2556 54.4529 23.689C54.8195 23.1113 55.3527 22.6669 56.0527 22.3337C56.7525 22.0115 57.5969 21.8449 58.5745 21.8449C59.7854 21.8449 60.7853 22.1004 61.5852 22.6114V24.8222C61.3074 24.6333 60.9742 24.4667 60.5964 24.3556C60.2187 24.2334 59.8187 24.1778 59.3966 24.1778C58.6411 24.1778 58.0635 24.3111 57.6302 24.5889C57.208 24.8666 56.9969 25.2221 56.9969 25.6665C56.9969 26.0998 57.1969 26.4553 57.6191 26.733C58.0301 27.0107 58.63 27.1551 59.4077 27.1551C59.8076 27.1551 60.2076 27.0996 60.5964 26.9774C60.9853 26.8552 61.3296 26.7219 61.6074 26.5442V28.6882C60.7186 29.2215 59.6854 29.4882 58.5189 29.4882C57.5302 29.4882 56.697 29.3104 55.9971 28.9771ZM64.7519 28.9771C64.0519 28.6327 63.5187 28.1773 63.1521 27.5884C62.7855 26.9996 62.5966 26.3442 62.5966 25.6109C62.5966 24.8888 62.7855 24.2334 63.1521 23.6668C63.5187 23.1002 64.0519 22.6558 64.7408 22.3337C65.4295 22.0115 66.2627 21.8449 67.2192 21.8449C68.1747 21.8449 69.0079 22.0004 69.6967 22.3337C70.3854 22.6558 70.9187 23.1002 71.2853 23.6668C71.6519 24.2334 71.8297 24.8777 71.8297 25.6109C71.8297 26.3331 71.6519 26.9996 71.2853 27.5884C70.9187 28.1773 70.3965 28.6438 69.6967 28.9771C68.9967 29.3104 68.1747 29.4882 67.2192 29.4882C66.2738 29.4882 65.4517 29.3104 64.7519 28.9771ZM68.4301 26.833C68.719 26.5442 68.8745 26.1442 68.8745 25.6665C68.8745 25.1777 68.7301 24.8 68.4301 24.5111C68.1302 24.2222 67.7303 24.0778 67.2303 24.0778C66.7082 24.0778 66.3071 24.2222 66.0072 24.5111C65.7184 24.8 65.5628 25.1777 65.5628 25.6665C65.5628 26.1553 65.7073 26.5442 66.0072 26.833C66.3071 27.1329 66.7082 27.2774 67.2303 27.2774C67.7303 27.2662 68.1413 27.1218 68.4301 26.833ZM79.2624 22.289V24.8998C78.9513 24.6998 78.5513 24.5998 78.0625 24.5998C77.4181 24.5998 76.9178 24.7998 76.5738 25.1886C76.229 25.5774 76.0512 26.1885 76.0512 27.0106V29.2325H73.0852V22.1668H75.996V24.4221C76.1516 23.5999 76.4182 22.989 76.7737 22.6001C77.1293 22.2113 77.5959 22.0002 78.1621 22.0002C78.5843 22.0002 78.9513 22.1002 79.2624 22.289ZM89.2614 20.5222V29.2432H86.2954V27.6545C86.0395 28.2545 85.6617 28.71 85.1507 29.021C84.6389 29.3321 84.0053 29.4876 83.2498 29.4876C82.5832 29.4876 81.9947 29.3209 81.4944 28.9988C80.9948 28.6766 80.6063 28.2211 80.3397 27.6545C80.0731 27.0769 79.9397 26.4325 79.9397 25.7215C79.9283 24.9771 80.0731 24.3106 80.3727 23.7218C80.6615 23.133 81.0837 22.6775 81.617 22.3442C82.1503 22.0109 82.761 21.8442 83.4498 21.8442C84.8611 21.8442 85.8065 22.4553 86.2954 23.6884V20.5222H89.2614ZM85.851 26.7769C86.1506 26.488 86.3061 26.0992 86.3061 25.6326C86.3061 25.1771 86.162 24.8105 85.8617 24.5328C85.5621 24.255 85.1622 24.1106 84.6611 24.1106C84.1608 24.1106 83.7609 24.255 83.4612 24.5439C83.1609 24.8327 83.0168 25.1993 83.0168 25.666C83.0168 26.1325 83.1609 26.4991 83.4612 26.788C83.7609 27.0769 84.1501 27.2213 84.6497 27.2213C85.1507 27.2213 85.5506 27.0769 85.851 26.7769ZM42.6655 22.5891C43.5176 22.5891 44.2098 21.9673 44.2098 21.2005C44.2098 20.4335 43.5176 19.8118 42.6655 19.8118C41.8123 19.8118 41.1213 20.4335 41.1213 21.2005C41.1213 21.9673 41.8123 22.5891 42.6655 22.5891ZM44.2098 23.544C43.2654 23.955 42.0878 23.9661 41.1213 23.544V29.2432H44.2098V23.544Z" fill="white"/>
</g>
</g>
</g>
<defs>
<clipPath id="clip0_1_39767">
<rect width="88.88" height="50" fill="white" transform="translate(0.382812 0.879883)"/>
</clipPath>
<clipPath id="clip1_1_39767">
<rect width="88.88" height="50" fill="white" transform="translate(0.382812 0.879883)"/>
</clipPath>
<clipPath id="clip2_1_39767">
<rect width="88.88" height="17.2026" fill="white" transform="translate(0.382812 17.2786)"/>
</clipPath>
</defs>
</svg>
