<svg width="90" height="51" viewBox="0 0 90 51" fill="none" xmlns="http://www.w3.org/2000/svg">
<g clip-path="url(#clip0_1_39771)">
<g clip-path="url(#clip1_1_39771)">
<g clip-path="url(#clip2_1_39771)">
<path d="M38.0738 27.6483C38.0738 31.7606 34.8094 34.7909 30.8033 34.7909C26.7971 34.7909 23.5327 31.7606 23.5327 27.6483C23.5327 23.5071 26.7971 20.5057 30.8033 20.5057C34.8094 20.5057 38.0738 23.5071 38.0738 27.6483ZM34.8911 27.6483C34.8911 25.0785 32.9991 23.3202 30.8033 23.3202C28.6074 23.3202 26.7155 25.0785 26.7155 27.6483C26.7155 30.1923 28.6074 31.9764 30.8033 31.9764C32.9991 31.9764 34.8911 30.1891 34.8911 27.6483ZM53.7587 27.6483C53.7587 31.7606 50.4943 34.7909 46.4881 34.7909C42.482 34.7909 39.2176 31.7606 39.2176 27.6483C39.2176 23.5102 42.482 20.5057 46.4881 20.5057C50.4943 20.5057 53.7587 23.5071 53.7587 27.6483ZM50.576 27.6483C50.576 25.0785 48.684 23.3202 46.4881 23.3202C44.2923 23.3202 42.4003 25.0785 42.4003 27.6483C42.4003 30.1923 44.2923 31.9764 46.4881 31.9764C48.684 31.9764 50.576 30.1891 50.576 27.6483ZM68.7893 20.9372V33.7604C68.7893 39.0352 65.6328 41.1896 61.9011 41.1896C58.3884 41.1896 56.2743 38.8742 55.4769 36.9807L58.248 35.844C58.7413 37.0064 59.9504 38.3783 61.8979 38.3783C64.2865 38.3783 65.7668 36.926 65.7668 34.1919V33.1647H65.6556C64.9433 34.0309 63.5709 34.7877 61.8391 34.7877C58.2153 34.7877 54.8953 31.6769 54.8953 27.674C54.8953 23.6422 58.2153 20.5057 61.8391 20.5057C63.5676 20.5057 64.9401 21.2625 65.6556 22.1029H65.7668V20.9405H68.7893V20.9372ZM65.9923 27.674C65.9923 25.159 64.2898 23.3202 62.1233 23.3202C59.9275 23.3202 58.0878 25.159 58.0878 27.674C58.0878 30.1633 59.9275 31.9764 62.1233 31.9764C64.2898 31.9764 65.9923 30.1633 65.9923 27.674ZM73.7713 13.4209V34.3528H70.6671V13.4209H73.7713ZM85.8685 29.9987L88.3389 31.6217C87.5416 32.7843 85.6202 34.7873 82.3003 34.7873C78.183 34.7873 75.1082 31.6507 75.1082 27.6447C75.1082 23.3972 78.2092 20.5021 81.9441 20.5021C85.7052 20.5021 87.5448 23.4519 88.1461 25.0459L88.4761 25.8575L78.7876 29.812C79.5294 31.245 80.6828 31.9759 82.3003 31.9759C83.9211 31.9759 85.0451 31.1903 85.8685 29.9987ZM78.2648 27.4289L84.7412 24.7786C84.3851 23.8866 83.3132 23.2651 82.052 23.2651C80.4344 23.2651 78.183 24.6724 78.2648 27.4289ZM11.7791 25.7911V22.7607H22.1408C22.2421 23.2889 22.2943 23.9136 22.2943 24.5899C22.2943 26.8634 21.6638 29.6747 19.6313 31.6777C17.6543 33.7065 15.1284 34.7885 11.7823 34.7885C5.5804 34.7885 0.365234 29.8099 0.365234 23.6979C0.365234 17.5858 5.5804 12.6072 11.7823 12.6072C15.2134 12.6072 17.6576 13.9339 19.494 15.6632L17.3243 17.8015C16.0074 16.5842 14.2233 15.6375 11.7791 15.6375C7.25017 15.6375 3.70804 19.2345 3.70804 23.6979C3.70804 28.1612 7.25017 31.7583 11.7791 31.7583C14.7167 31.7583 16.3897 30.5957 17.4615 29.5395C18.3308 28.6828 18.9025 27.4592 19.128 25.7878L11.7791 25.7911Z" fill="white"/>
</g>
</g>
</g>
<defs>
<clipPath id="clip0_1_39771">
<rect width="88.88" height="50" fill="white" transform="translate(0.25 0.879883)"/>
</clipPath>
<clipPath id="clip1_1_39771">
<rect width="88.88" height="50" fill="white" transform="translate(0.25 0.879883)"/>
</clipPath>
<clipPath id="clip2_1_39771">
<rect width="88.88" height="40.7367" fill="white" transform="translate(0.25 5.51147)"/>
</clipPath>
</defs>
</svg>
