<svg width="101" height="31" viewBox="0 0 101 31" fill="none" xmlns="http://www.w3.org/2000/svg">
<g clip-path="url(#clip0_1_39965)">
<g clip-path="url(#clip1_1_39965)">
<g clip-path="url(#clip2_1_39965)">
<path d="M23.1831 29.3394V17.5588C23.1831 14.8721 21.8021 14.031 19.6349 14.031C18.7881 14.0502 17.9575 14.266 17.2084 14.6613C16.4551 15.0599 15.8034 15.6262 15.3036 16.3166V29.3394H10.2969V2.60968H15.3036V12.508C16.1388 11.5503 17.1713 10.7846 18.3302 10.2634C19.4837 9.74496 20.7365 9.48509 22.0011 9.50183C26.1764 9.50183 28.1866 11.8261 28.1866 15.596V29.3416H23.1831V29.3394ZM41.1245 29.6696C35.3272 29.6696 31.1143 25.5986 31.1143 19.2733C31.1143 12.949 35.2197 8.88016 41.1245 8.88016C46.8862 8.88016 50.955 12.8425 50.955 18.8366C50.9604 19.4948 50.912 20.1509 50.8109 20.8006H36.2285C36.4802 23.7798 38.4979 25.4534 41.0298 25.4534C43.1906 25.4534 44.3791 24.3628 45.0265 23.0302H50.4645C49.3836 26.7258 46.0709 29.6696 41.1255 29.6696H41.1245ZM36.2629 17.3868H45.7461C45.6741 14.7323 43.5853 13.0598 40.9921 13.0598C38.5797 13.0598 36.6717 14.6236 36.2759 17.3857H36.2629V17.3868ZM53.5579 2.60968H58.4366V29.3394H53.5579V2.60968ZM61.6891 3.92831C61.6891 2.26335 62.9851 0.959778 64.7856 0.959778C66.585 0.959778 67.8692 2.25045 67.8692 3.92831C67.8692 5.60618 66.5377 6.89685 64.7737 6.89685C63.0099 6.89685 61.6891 5.58144 61.6891 3.92831ZM62.229 9.28676H67.2691V29.3394H62.229V9.28676ZM86.4515 18.78C86.3642 17.2574 85.7042 15.8241 84.6035 14.7682C83.5122 13.7216 82.0589 13.1368 80.5462 13.1355C79.0349 13.137 77.5815 13.7219 76.4905 14.7682C75.3901 15.8241 74.7299 17.2574 74.6427 18.78H70.1458C70.1425 15.9876 71.2373 13.3058 73.1939 11.3135C74.1543 10.3355 75.2996 9.55836 76.5631 9.02729C77.8269 8.49623 79.1835 8.22189 80.5542 8.22023C81.9249 8.22196 83.2815 8.49629 84.5449 9.02736C85.8082 9.55843 86.9535 10.3356 87.9142 11.3135C89.8709 13.3056 90.9662 15.9874 90.9635 18.78H86.4515ZM80.7735 30.0002C78.8189 29.999 76.9053 29.4352 75.2623 28.3761C73.6047 27.3066 72.2824 25.7912 71.4473 24.004L75.4913 22.0798C75.9596 23.0671 76.6904 23.9065 77.6035 24.5062C78.5089 25.1001 79.5629 25.428 80.6455 25.4528C81.7269 25.4759 82.7935 25.1949 83.7235 24.6418C84.6615 24.0833 85.4275 23.2772 85.9369 22.3121L89.9875 24.2395C89.1242 25.9626 87.8042 27.4155 86.1715 28.4396C84.5529 29.4536 82.6835 29.9942 80.7735 30.0002Z" fill="white"/>
</g>
</g>
</g>
<defs>
<clipPath id="clip0_1_39965">
<rect width="100" height="30" fill="white" transform="translate(0.630859 0.47998)"/>
</clipPath>
<clipPath id="clip1_1_39965">
<rect width="100" height="30" fill="white" transform="translate(0.630859 0.47998)"/>
</clipPath>
<clipPath id="clip2_1_39965">
<rect width="80.6667" height="30" fill="white" transform="translate(10.2969 0.47998)"/>
</clipPath>
</defs>
</svg>
