<svg width="89" height="51" viewBox="0 0 89 51" fill="none" xmlns="http://www.w3.org/2000/svg">
<g clip-path="url(#clip0_1_39779)">
<g clip-path="url(#clip1_1_39779)">
<g clip-path="url(#clip2_1_39779)">
<path d="M14.3368 30.2112L4.55111 30.8182C3.60353 30.827 2.90828 30.3976 2.89241 29.7994V29.7824L4.18407 16.7416C4.17408 16.6734 4.03938 16.6163 3.87997 16.6128C2.22245 17.1104 0.388478 17.7051 0.0820312 17.8827L0.424359 32.2811C0.439651 32.9045 1.23194 33.5686 2.93945 33.555L14.4268 33.8038C14.5304 33.8035 14.6302 33.7653 14.7074 33.6962C14.7208 33.6846 14.7301 33.6689 14.7339 33.6514L14.6539 30.3464C14.6534 30.3141 14.5362 30.2112 14.3368 30.2112ZM17.9871 18.2621C17.9871 18.1927 17.849 18.118 17.6296 18.1174L15.3703 18.6573H15.3545C15.2245 18.6573 15.0986 18.6973 15.0415 18.7562C15.034 18.7623 15.0279 18.77 15.0236 18.7787C15.0194 18.7875 15.017 18.797 15.0168 18.8067L15.6639 32.494C15.6685 32.5327 15.8162 32.6481 16.0168 32.6481L17.8078 32.6304C17.9295 32.6371 18.0495 32.5984 18.1443 32.5216C18.1579 32.5106 18.1672 32.4952 18.1708 32.478L17.9871 18.2621ZM29.5333 23.9675H29.511L25.3038 24.3987C24.4003 24.4069 23.6626 24.6598 23.2263 25.1104C23.083 25.2561 22.9714 25.4298 22.8983 25.6205C22.8251 25.8113 22.7919 26.015 22.8009 26.2191L22.8181 26.9726C22.8181 27.0485 22.9522 27.1643 23.1063 27.1649L24.6808 27.1485C24.7759 27.1465 24.8667 27.1082 24.9343 27.0414C24.9585 27.0197 24.9741 26.9901 24.9785 26.9579L24.9709 26.6461C24.9625 26.3262 25.0526 26.0668 25.2378 25.8756C25.4732 25.6345 25.8501 25.5098 26.366 25.5056L27.0331 25.4998H27.0535C27.9358 25.4998 28.5123 25.935 28.5299 26.612L28.5405 27.1079C28.5416 27.242 28.5155 27.375 28.4638 27.4989C28.4123 27.6227 28.3361 27.7348 28.2399 27.8284C27.9671 28.1102 27.54 28.2813 27.0976 28.2866L25.3948 28.3007C24.4844 28.3078 23.7479 28.5548 23.3198 28.996C23.1753 29.1445 23.063 29.3212 22.9898 29.5149C22.9166 29.7087 22.8839 29.9154 22.894 30.1224L22.9251 31.3664C22.9463 32.2763 23.9461 33.3662 25.1602 33.3662H25.1731L29.3364 33.131C29.6639 33.1318 29.9884 33.068 30.2913 32.9432C30.594 32.8182 30.8692 32.6349 31.101 32.4034C31.4398 32.054 31.6209 31.6352 31.6109 31.227V31.2199L31.7703 25.5862C31.7473 24.6587 30.788 23.9675 29.5333 23.9675ZM29.7611 31.4058C29.4928 31.6834 29.0751 31.8387 28.5846 31.8434L27.5989 31.854H27.5871C26.6995 31.854 26.0707 31.3834 26.0577 30.7023V30.5382C26.0489 30.1935 26.1483 29.903 26.3448 29.7C26.5636 29.4736 26.8929 29.3565 27.3242 29.353L28.5594 29.3489H28.5747C29.5787 29.3489 30.0404 29.9259 30.0522 30.5L30.0562 30.6647C30.0599 30.8018 30.0356 30.9382 29.985 31.0656C29.9342 31.193 29.858 31.3088 29.7611 31.4058ZM51.1165 23.1164C50.8253 22.6912 50.3083 22.1859 49.5143 22.1912L45.2646 22.2288C44.3882 22.2359 43.7764 22.6788 43.4177 23.0494C42.8718 23.6129 42.5425 24.3904 42.5583 25.0786L42.5789 25.8921C42.5789 25.9791 42.7212 26.1121 42.9036 26.1121L43.9717 26.1038C44.0781 26.1006 44.1792 26.0571 44.2546 25.9821C44.2835 25.9569 44.3017 25.9215 44.3052 25.8833L44.2987 25.5427C44.2911 25.1992 44.387 24.921 44.5845 24.7192C44.8346 24.461 45.2434 24.3269 45.7993 24.3204L47.1644 24.3104C48.1261 24.301 48.7526 24.7692 48.7737 25.5039L48.7848 26.0403C48.7867 26.1847 48.7591 26.328 48.7038 26.4614C48.6487 26.5949 48.567 26.7158 48.4637 26.8167C48.1696 27.1208 47.7085 27.3049 47.2285 27.3085L45.3851 27.3255C44.5929 27.3308 44.0482 27.4984 43.7194 27.8372C43.4153 28.1513 43.2819 28.6183 43.2989 29.3077L43.3312 30.6605C43.3594 31.8369 43.9653 32.4251 45.1352 32.4152H45.1423L49.6713 32.8097C50.4948 32.8009 51.2289 32.5216 51.6936 32.0452C52.0023 31.7263 52.1641 31.347 52.1534 30.9464L51.6881 24.8339C51.6583 24.2199 51.4605 23.6259 51.1165 23.1164ZM49.6883 30.8864C49.5084 31.0717 49.2331 31.1629 48.8466 31.1652L47.7791 31.1776H47.7573C46.8062 31.1776 46.1322 30.6717 46.1139 29.9424L46.1098 29.7606C46.1053 29.6141 46.1307 29.4683 46.1842 29.3319C46.2378 29.1955 46.3185 29.0714 46.4216 28.9672C46.7157 28.666 47.1732 28.4966 47.7156 28.4925L48.8108 28.486H48.8344C49.9078 28.486 49.9266 29.1719 49.9414 29.7212L49.946 29.8977C49.9565 30.2482 49.9296 30.6358 49.6883 30.8864ZM61.9592 19.7449H61.9481L57.439 19.782C57.2795 19.7807 57.1214 19.8122 56.9746 19.8746C56.8278 19.9369 56.6953 20.0287 56.5855 20.1443C56.2326 20.5101 56.046 21.123 56.0632 21.8706L56.1362 24.8586C56.1667 26.1221 56.7438 26.9338 57.6107 26.9273L61.7051 26.8914C62.0286 26.8914 62.352 26.7355 62.6191 26.4614C62.9827 26.0856 63.1843 25.5409 63.1715 24.9657V24.9533L63.3961 21.6594C63.3697 20.5836 62.7402 19.7449 61.9592 19.7449ZM60.764 23.8822C60.5199 24.1363 60.1305 24.3157 59.8165 24.3187L58.6618 24.3287H58.6541C58.1412 24.3287 57.813 23.901 57.7966 23.2111L57.7795 22.4229C57.7695 22.0459 57.8636 21.743 58.0523 21.5477C58.1228 21.4755 58.207 21.4183 58.3003 21.3797C58.3933 21.3411 58.4933 21.3218 58.5941 21.323L60.1641 21.3065H60.1675C60.6587 21.3065 61.0258 21.7847 61.0422 22.4453L61.0551 23.1793C61.0566 23.3101 61.0317 23.4398 60.9817 23.5606C60.9317 23.6815 60.8575 23.7909 60.764 23.8822ZM76.0453 30.1747C76.0385 30.1352 76.0176 30.0995 75.9864 30.0741C75.9008 29.9957 75.7907 29.9492 75.6747 29.9424H75.6689L70.5375 29.9871C70.0846 29.9753 69.877 29.7418 69.8316 29.5271C69.7769 29.2671 69.9364 29.0071 70.238 28.8648L75.3689 26.4191C75.7536 26.2244 75.9429 25.8721 75.9295 25.3751L75.8606 22.4665C75.853 22.2312 75.733 22.2312 75.6689 22.2312H75.6571L64.642 21.3707C64.502 21.3748 64.3627 21.493 64.3633 21.6059V21.6248L63.9609 24.7751C63.9703 24.8886 64.1185 25.0039 64.2551 25.0022L72.8273 24.9286C73.1584 24.9245 73.4108 25.0769 73.4678 25.3157C73.5108 25.4962 73.4343 25.7486 73.092 25.9156L73.0831 25.9197L67.4482 28.1978C67.0542 28.3784 66.9307 28.6095 66.9425 29.1501L67.1819 32.4081C67.1819 32.5287 67.3406 32.6651 67.476 32.6651L75.7359 32.5934C75.8475 32.5816 75.9515 32.5313 76.03 32.4509C76.0643 32.4206 76.0865 32.3788 76.0924 32.3334L76.0453 30.1747Z" fill="white"/>
<path d="M11.4631 21.2553H11.4572L7.5222 20.943C6.44875 20.9536 5.57706 21.2247 5.13002 21.6876C5.01937 21.7966 4.93238 21.9272 4.87449 22.0713C4.81659 22.2154 4.78906 22.3699 4.79358 22.5252V22.5352L4.12305 28.0212C4.1501 29.03 4.67418 29.5029 5.9288 29.6523L11.6795 29.0818C12.9682 29.02 14.2558 28.4583 14.2282 27.3431L14.2805 22.7887C14.2546 21.8458 13.1524 21.2412 11.4631 21.2553ZM12.3207 26.5849C12.3202 26.698 12.2972 26.8098 12.253 26.9139C12.2089 27.018 12.1445 27.1123 12.0636 27.1913C11.7748 27.4901 11.2901 27.6619 10.7343 27.6683L9.98612 27.6772H9.95613C8.67505 27.6772 8.39449 27.1931 8.38625 26.7843L8.3239 24.1739C8.31953 24.0612 8.33813 23.9488 8.37859 23.8435C8.41903 23.7383 8.48047 23.6424 8.55918 23.5616C8.82152 23.2904 9.27854 23.1446 9.88084 23.1399L11.0319 23.1287C11.973 23.121 12.5665 23.5069 12.5806 24.1339V24.1427L12.3207 26.5849ZM21.9127 21.4565C21.9127 21.3847 21.7674 21.3076 21.5375 21.3088H21.5321L19.4146 21.1559C19.2887 21.1559 19.1628 21.1988 19.1071 21.2565C19.0999 21.2621 19.0942 21.2692 19.0903 21.2774C19.0865 21.2855 19.0844 21.2945 19.0846 21.3035L19.0587 33.6167C19.0652 33.6538 19.2099 33.7625 19.4047 33.7625L21.6762 33.7419C21.7982 33.7491 21.9184 33.7102 22.0133 33.6332C22.0265 33.6224 22.0358 33.6075 22.0398 33.5908L21.9127 21.4565ZM54.8743 19.4666L52.2834 19.4866C52.1936 19.487 52.1054 19.5107 52.0275 19.5554C52.0066 19.5658 51.9883 19.581 51.9744 19.5998C51.9604 19.6187 51.9513 19.6405 51.9476 19.6636L53.0481 32.4204C53.0481 32.4727 53.2028 32.5997 53.3974 32.5967L55.1878 32.5797C55.308 32.5856 55.426 32.5452 55.5172 32.4668C55.537 32.4493 55.5497 32.4253 55.5531 32.3991L55.2509 19.6425C55.2467 19.5389 55.0884 19.4643 54.8743 19.4666ZM63.1201 27.5554L59.671 27.5854C58.4758 27.5948 57.5535 27.8442 57.1417 28.2694C57.0721 28.3357 57.0168 28.4157 56.9795 28.5042C56.9421 28.5927 56.9232 28.688 56.9241 28.7841V28.7935L56.5229 32.2333C56.5582 33.1896 57.8835 33.5179 59.1175 33.5055L63.7694 33.4679C64.707 33.4584 66.2828 33.2673 66.3198 32.0992L65.9205 28.733C65.7122 27.9271 64.7923 27.5419 63.1201 27.5554ZM63.7936 31.3286C63.7347 32.025 63.0012 32.0345 62.3531 32.0415L60.8238 32.0533H60.6044C60.1927 32.0533 59.8839 32.0286 59.6916 31.8386C59.5739 31.7239 59.5151 31.5633 59.5151 31.3475V31.331L59.5187 31.3151L59.9056 29.6541C59.9081 29.5229 59.9615 29.3978 60.0544 29.3053C60.3274 29.0229 60.8955 28.9582 61.3249 28.9523L62.3531 28.9429H62.3877C63.6412 28.9429 63.7488 29.4723 63.7518 29.6341L63.7919 31.3175L63.7936 31.3286ZM39.2055 21.1206H39.1961L28.7798 20.5095C28.7702 20.5103 28.7608 20.5131 28.7522 20.5176C28.7436 20.5222 28.736 20.5284 28.7298 20.5359C28.6709 20.5947 28.6363 20.7242 28.6392 20.8635L28.6863 22.8905C28.6911 23.1057 28.7598 23.2681 28.8468 23.2751L32.0202 22.8993C32.2079 22.8993 32.3884 23.0281 32.5072 23.2575L32.5236 23.2886L32.3508 34.962C32.3554 35.0624 32.4996 35.1419 32.6719 35.1383L34.5452 35.1213C34.6818 35.1213 34.7911 35.0877 34.8441 35.033C34.8554 35.0217 34.8644 35.0083 34.8704 34.9934C34.8763 34.9785 34.8792 34.9626 34.8788 34.9466L34.4782 31.4986C34.4773 31.4265 34.4912 31.355 34.5189 31.2885C34.5466 31.2219 34.5877 31.1617 34.6394 31.1116C34.8159 30.9351 35.1099 30.8246 35.4317 30.8216H35.4382L39.7766 31.1957C40.5513 31.1892 41.4006 31.1222 41.8388 30.6746C42.0782 30.4299 42.1917 30.0864 42.1847 29.6188L42.0294 23.0252C42.0006 21.907 40.8136 21.1065 39.2055 21.1206ZM39.9819 29.0512C39.7278 29.3147 39.3237 29.4629 38.8443 29.4676L37.7745 29.4758H37.7474C36.8586 29.4758 36.1816 29.0012 36.1686 28.3636L36.0769 24.5403C36.0752 24.4183 36.0983 24.2973 36.1446 24.1845C36.1911 24.0716 36.2598 23.9694 36.3468 23.8839C36.6303 23.5898 37.0998 23.4192 37.6339 23.4134L38.7039 23.4028C39.5708 23.3975 40.1602 23.838 40.1742 24.5003L40.2648 28.3194C40.2701 28.4543 40.2476 28.5887 40.199 28.7145C40.1504 28.8404 40.0765 28.9549 39.9819 29.0512ZM88.7966 32.0721L88.5807 30.5463C88.5635 30.3987 88.5171 30.284 88.4571 30.2369C88.4407 30.2229 88.4198 30.2154 88.3983 30.2158C87.6925 30.401 86.479 30.6699 86.2291 30.4163C86.1591 30.3428 86.045 30.2234 86.1072 27.0531C86.1367 25.5538 86.1938 24.0633 86.1974 23.9721C86.1696 22.8299 85.1051 21.9788 83.7228 21.9911L79.3208 22.2064C78.9731 22.2092 78.6299 22.2824 78.3113 22.4216C77.993 22.5608 77.7061 22.7631 77.4679 23.0163C76.9151 23.5886 76.5957 24.3809 76.6144 25.1338L76.6321 26.042C76.6356 26.1596 76.7903 26.3031 76.9568 26.2996L78.5072 26.2849C78.6073 26.2814 78.7019 26.2392 78.7714 26.1672C78.8123 26.1307 78.8375 26.0797 78.8414 26.0249L78.8296 25.5844C78.8202 25.1356 78.8126 24.7803 79.0349 24.5515C79.1936 24.3886 79.4532 24.3115 79.8506 24.3092L81.2153 24.2939H81.2312C82.1806 24.2939 82.8064 24.8103 82.8281 25.612L82.8393 26.2084C82.8452 26.4219 82.7917 26.5819 82.677 26.6966C82.4593 26.9143 82.0799 26.9054 81.6406 26.8942C81.5406 26.8942 81.4376 26.8895 81.3323 26.8895H81.2735L79.4271 26.9048C78.4862 26.9125 77.7115 27.1848 77.2409 27.6695C76.8739 28.0483 76.6957 28.5383 76.7115 29.1253L76.7451 30.6281C76.771 31.7145 77.858 32.5908 79.1726 32.5908H79.1961L83.7127 32.5509H83.7787L88.6894 32.4038C88.7111 32.3993 88.7301 32.3864 88.7424 32.368C88.7947 32.2788 88.8139 32.174 88.7966 32.0721ZM84.1215 30.7193C83.8321 31.0187 83.3969 31.1863 82.8964 31.1898L81.8277 31.1969H81.8105C80.8554 31.1969 80.1789 30.6404 80.1636 29.8382L80.1583 29.6411C80.1518 29.4724 80.1798 29.3042 80.2405 29.1466C80.3012 28.989 80.3934 28.8455 80.5112 28.7247C80.8054 28.4224 81.2489 28.2542 81.7653 28.2483L82.8617 28.2383C83.9528 28.2289 84.458 28.9141 84.4721 29.597L84.4798 29.7929C84.4859 29.963 84.4572 30.1327 84.3956 30.2914C84.334 30.4502 84.2408 30.5947 84.1215 30.7163V30.7193ZM86.7584 22.811L86.7543 22.5758H86.8031C86.8153 22.5742 86.8279 22.5751 86.8398 22.5785C86.8517 22.5818 86.8629 22.5875 86.8725 22.5952C86.9103 22.6322 86.9408 22.6759 86.9626 22.724L87.0101 22.8105H87.1137L87.0478 22.7028C87.0258 22.6627 86.9994 22.6253 86.9689 22.5911C86.9556 22.579 86.9406 22.5691 86.9243 22.5617C86.9449 22.5604 86.9651 22.555 86.9835 22.5458C87.0021 22.5366 87.0185 22.5238 87.032 22.5081C87.0574 22.4782 87.0708 22.4398 87.0696 22.4005C87.0677 22.3714 87.0591 22.3432 87.0443 22.3181C87.0275 22.2936 87.0035 22.2749 86.9754 22.2646C86.9319 22.2523 86.8866 22.2473 86.8414 22.2499H86.6648L86.6778 22.8146L86.7584 22.811ZM86.8479 22.324C86.8762 22.3228 86.9047 22.3262 86.9319 22.334C86.9459 22.3407 86.9578 22.3508 86.9666 22.3634C86.9765 22.376 86.982 22.3915 86.982 22.4076C86.9823 22.4187 86.9801 22.4298 86.9754 22.44C86.9708 22.4502 86.964 22.4592 86.9555 22.4664C86.9264 22.4874 86.8906 22.4968 86.8548 22.4928H86.7514L86.7466 22.3211L86.8479 22.324Z" fill="white"/>
<path d="M86.6525 22.9765C86.726 23.0188 86.8093 23.0412 86.8942 23.0417C86.9786 23.0413 87.0612 23.0175 87.1329 22.9729C87.209 22.9262 87.2692 22.8578 87.3059 22.7765C87.3457 22.695 87.3655 22.6052 87.3635 22.5146C87.3616 22.4239 87.338 22.335 87.2948 22.2553C87.2531 22.1742 87.1882 22.1072 87.1083 22.063C87.0371 22.0204 86.956 21.9971 86.873 21.9954C86.79 21.9982 86.709 22.0221 86.6378 22.0648C86.562 22.1125 86.5009 22.1803 86.4612 22.2606C86.4214 22.3427 86.4012 22.4329 86.4024 22.5242C86.4055 22.6146 86.4292 22.7031 86.4719 22.783C86.5137 22.8625 86.576 22.9293 86.6525 22.9765ZM86.5289 22.3036C86.5603 22.2361 86.6114 22.1798 86.6754 22.1418C86.7336 22.1037 86.8017 22.0833 86.8713 22.083C86.9414 22.0829 87.0105 22.1013 87.0713 22.1365C87.137 22.1741 87.1901 22.2301 87.2242 22.2977C87.2622 22.3639 87.2836 22.4384 87.2865 22.5147C87.2867 22.5901 87.2697 22.6646 87.2365 22.7324C87.2068 22.8008 87.1559 22.8579 87.0913 22.8953C87.0328 22.9337 86.9642 22.9542 86.8942 22.9541C86.8208 22.9534 86.7489 22.933 86.6861 22.8952C86.6232 22.8573 86.5716 22.8033 86.5366 22.7388C86.4993 22.6723 86.479 22.5975 86.4778 22.5212C86.4763 22.4463 86.4939 22.3722 86.5289 22.3059V22.3036Z" fill="white"/>
</g>
</g>
</g>
<defs>
<clipPath id="clip0_1_39779">
<rect width="88.88" height="50" fill="white" transform="translate(0 0.879883)"/>
</clipPath>
<clipPath id="clip1_1_39779">
<rect width="88.88" height="50" fill="white" transform="translate(0 0.879883)"/>
</clipPath>
<clipPath id="clip2_1_39779">
<rect width="88.88" height="18.5812" fill="white" transform="translate(0 16.5894)"/>
</clipPath>
</defs>
</svg>
