<svg width="90" height="51" viewBox="0 0 90 51" fill="none" xmlns="http://www.w3.org/2000/svg">
<g clip-path="url(#clip0_1_39785)">
<g clip-path="url(#clip1_1_39785)">
<g clip-path="url(#clip2_1_39785)">
<path d="M69.5864 27.7555H68.0579C67.9396 27.7525 67.8275 27.7048 67.7437 27.6224C67.6599 27.5399 67.6118 27.429 67.6084 27.3124V26.9579C67.6118 26.8414 67.6599 26.7304 67.7437 26.648C67.8275 26.5655 67.9396 26.5179 68.0579 26.5149H69.3651C69.484 26.5149 69.5983 26.4682 69.6827 26.3851C69.767 26.3021 69.8146 26.1894 69.8146 26.0718C69.8146 25.9544 69.767 25.8416 69.6827 25.7585C69.5983 25.6755 69.484 25.6288 69.3651 25.6288H68.046C67.9277 25.6258 67.8156 25.5782 67.7318 25.4957C67.648 25.4133 67.5994 25.3023 67.5965 25.1857V24.8313C67.5994 24.7148 67.648 24.6038 67.7318 24.5214C67.8156 24.4389 67.9277 24.3913 68.046 24.3883H69.5445C69.664 24.3883 69.7783 24.3416 69.8627 24.2585C69.947 24.1754 69.994 24.0627 69.994 23.9452C69.994 23.8278 69.947 23.715 69.8627 23.6319C69.7783 23.5488 69.664 23.5022 69.5445 23.5022H67.7466C67.6764 23.5008 67.6079 23.5237 67.5529 23.5669C67.498 23.61 67.4607 23.6708 67.4465 23.7385L66.4875 28.1985V28.2871C66.5045 28.3906 66.56 28.4843 66.6432 28.5498C66.7264 28.6153 66.8311 28.648 66.937 28.6415H69.5745C69.694 28.6415 69.8083 28.5948 69.8927 28.5118C69.977 28.4287 70.024 28.316 70.024 28.1985C70.024 28.081 69.977 27.9683 69.8927 27.8852C69.8083 27.8021 69.694 27.7555 69.5745 27.7555H69.5864ZM36.3202 23.5317H35.7207C35.6326 23.5328 35.5463 23.5583 35.4723 23.6053C35.398 23.6523 35.3389 23.7189 35.3012 23.7975L33.9825 26.9284C33.9825 26.9362 33.9791 26.9438 33.9737 26.9493C33.9681 26.9549 33.9605 26.9579 33.9524 26.9579C33.9225 26.9579 33.9225 26.9579 33.9225 26.9284L32.6038 23.7975C32.5717 23.7176 32.5202 23.6466 32.4539 23.5907C32.334 23.5022 32.1842 23.6203 32.1542 23.768L31.1652 28.2871C31.1574 28.3382 31.1679 28.3905 31.1951 28.4348C31.2311 28.5062 31.2866 28.5661 31.3555 28.6079C31.4244 28.6497 31.5038 28.6716 31.5848 28.6711H31.7646C31.8809 28.6651 31.9903 28.6162 32.0715 28.5341C32.1527 28.4519 32.1992 28.3426 32.2022 28.2279V25.3334C32.2022 25.3256 32.2055 25.3181 32.2109 25.3126C32.2166 25.307 32.224 25.3039 32.2321 25.3039C32.2402 25.3039 32.2477 25.307 32.2534 25.3126C32.2588 25.3181 32.2621 25.3256 32.2621 25.3334L33.4909 28.3757C33.5236 28.4579 33.5817 28.5278 33.6569 28.5755C33.7325 28.6233 33.8212 28.6464 33.9105 28.6415H34.0304C34.1185 28.6404 34.2048 28.6149 34.2789 28.5679C34.3531 28.5209 34.4122 28.4543 34.45 28.3757L35.6788 25.363C35.6788 25.3551 35.6821 25.3476 35.6875 25.3421C35.6931 25.3365 35.7007 25.3334 35.7088 25.3334C35.7169 25.3334 35.7243 25.3365 35.73 25.3421C35.7354 25.3476 35.7387 25.3551 35.7387 25.363V28.2279C35.7417 28.3445 35.7899 28.4555 35.8739 28.5379C35.9575 28.6204 36.0699 28.6681 36.1883 28.6711H36.3681C36.4865 28.6681 36.5989 28.6204 36.6825 28.5379C36.7664 28.4555 36.8147 28.3445 36.8177 28.2279V23.9748C36.797 23.8566 36.7371 23.7488 36.6468 23.6684C36.5564 23.588 36.4415 23.5399 36.3202 23.5317ZM50.0468 25.9241H48.7281C48.6169 25.9241 48.5102 25.9677 48.4314 26.0453C48.3526 26.1228 48.3086 26.228 48.3086 26.3377C48.3086 26.4473 48.3526 26.5525 48.4314 26.6301C48.5102 26.7076 48.6169 26.7512 48.7281 26.7512H48.9679C49.2077 26.7512 49.4474 26.9579 49.3275 27.1942C49.1477 27.5782 48.7881 27.7849 48.2186 27.7849C47.3794 27.7849 46.8699 27.1647 46.8699 26.1014C46.8699 25.038 47.4094 24.4178 48.2186 24.4178C48.4062 24.4082 48.5933 24.4467 48.7614 24.5296C48.9295 24.6124 49.0728 24.7367 49.1777 24.8903C49.2244 24.9765 49.2934 25.049 49.3776 25.1008C49.4618 25.1526 49.558 25.1819 49.6572 25.1857H49.927C49.9875 25.1906 50.0486 25.1808 50.1044 25.1573C50.1604 25.1337 50.2096 25.0971 50.2479 25.0506C50.2863 25.004 50.3127 24.949 50.3247 24.8902C50.3367 24.8314 50.3337 24.7706 50.3166 24.7132C50.1296 24.3259 49.8307 24.0017 49.4576 23.781C49.0842 23.5603 48.6535 23.453 48.2186 23.4726C46.8399 23.4726 45.791 24.4473 45.791 26.1014C45.791 27.7554 46.78 28.7301 48.2486 28.7301C49.5673 28.7301 50.4964 27.903 50.4964 26.574V26.3672C50.4976 26.3087 50.4868 26.2505 50.4646 26.1962C50.4425 26.1419 50.4095 26.0926 50.3675 26.0512C50.3256 26.0098 50.2755 25.9772 50.2204 25.9554C50.1652 25.9336 50.1062 25.9229 50.0468 25.9241ZM42.2529 23.827C42.222 23.7413 42.1654 23.667 42.0905 23.6142C42.0152 23.5614 41.9256 23.5326 41.8333 23.5317H41.0541C40.9617 23.5326 40.8721 23.5614 40.7969 23.6142C40.722 23.667 40.6653 23.7413 40.6345 23.827L39.1359 28.0803C39.1134 28.1468 39.1072 28.2176 39.1173 28.2869C39.1275 28.3563 39.1542 28.4223 39.195 28.4797C39.2357 28.5371 39.2897 28.5843 39.3523 28.6175C39.4147 28.6508 39.4845 28.6691 39.5555 28.6711H39.7953C39.8876 28.6702 39.9772 28.6413 40.0524 28.5885C40.1273 28.5357 40.184 28.4614 40.2149 28.3757L40.3947 27.8144C40.4256 27.7287 40.4822 27.6545 40.5571 27.6016C40.6324 27.5488 40.722 27.52 40.8143 27.5191H42.0431C42.1354 27.52 42.225 27.5488 42.3003 27.6016C42.3752 27.6545 42.4318 27.7287 42.4627 27.8144L42.6425 28.3757C42.6734 28.4614 42.7301 28.5357 42.805 28.5885C42.8802 28.6413 42.9698 28.6702 43.0621 28.6711H43.3019C43.3729 28.6691 43.4427 28.6508 43.5051 28.6175C43.5677 28.5843 43.6216 28.5371 43.6624 28.4797C43.7032 28.4223 43.7299 28.3563 43.7401 28.2869C43.7503 28.2176 43.744 28.1468 43.7214 28.0803L42.2529 23.827ZM41.4916 26.6331H41.4017C41.3307 26.6311 41.2609 26.6128 41.1982 26.5796C41.1359 26.5463 41.0819 26.4991 41.0412 26.4417C41.0004 26.3842 40.9737 26.3183 40.9636 26.2489C40.9534 26.1796 40.9597 26.1087 40.9821 26.0423L41.4317 24.6836C41.4317 24.6758 41.435 24.6683 41.4404 24.6627C41.4461 24.6572 41.4536 24.6541 41.4617 24.6541C41.4698 24.6541 41.4772 24.6572 41.483 24.6627C41.4883 24.6683 41.4916 24.6758 41.4916 24.6836L41.9412 26.0423C41.9574 26.1108 41.9583 26.1821 41.9436 26.251C41.9292 26.3199 41.8992 26.3848 41.8564 26.4412C41.8135 26.4974 41.7587 26.5438 41.6957 26.577C41.6325 26.6101 41.563 26.6293 41.4916 26.6331ZM53.5224 23.5317H53.3126C53.1942 23.5346 53.0818 23.5823 52.9982 23.6648C52.9142 23.7472 52.866 23.8582 52.863 23.9748V28.2279C52.866 28.3445 52.9142 28.4555 52.9982 28.5379C53.0818 28.6204 53.1942 28.6681 53.3126 28.6711H53.5224C53.6407 28.6681 53.7531 28.6204 53.8368 28.5379C53.9207 28.4555 53.9689 28.3445 53.9719 28.2279V23.9748C53.9641 23.8597 53.9144 23.7514 53.8317 23.6699C53.7489 23.5884 53.6389 23.5393 53.5224 23.5317ZM58.7685 24.4179C58.9701 24.4124 59.1705 24.4585 59.3488 24.5517C59.5271 24.6448 59.6783 24.7819 59.7875 24.9496C59.826 25.0524 59.8957 25.1413 59.9863 25.2046C60.0774 25.2678 60.1855 25.3025 60.2971 25.304H60.5065C60.5671 25.3089 60.6282 25.2991 60.6843 25.2755C60.7403 25.252 60.789 25.2154 60.8275 25.1689C60.866 25.1223 60.8926 25.0673 60.9045 25.0085C60.9164 24.9497 60.9136 24.8889 60.896 24.8314C60.5965 23.9453 59.7875 23.4432 58.7385 23.4432C57.3596 23.4432 56.3106 24.3884 56.3106 26.0719C56.3106 27.7555 57.3296 28.7007 58.7385 28.7007C59.847 28.7007 60.5965 28.11 60.866 27.3716C60.8835 27.3141 60.8864 27.2533 60.8745 27.1945C60.8626 27.1357 60.836 27.0807 60.7975 27.0342C60.759 26.9876 60.7103 26.951 60.6543 26.9275C60.5982 26.9039 60.5371 26.8941 60.4765 26.899H60.237C60.1278 26.9085 60.023 26.9463 59.9336 27.0085C59.8442 27.0707 59.7728 27.1553 59.7275 27.2534C59.6273 27.4226 59.4824 27.5615 59.308 27.6552C59.1337 27.7489 58.9367 27.7939 58.7385 27.7851C57.959 27.7851 57.4196 27.1943 57.4196 26.1015C57.4196 25.0087 57.959 24.4179 58.7685 24.4179ZM74.292 23.5317H72.8835C72.7652 23.5346 72.6525 23.5823 72.5693 23.6648C72.4849 23.7472 72.4368 23.8582 72.434 23.9748V28.2279C72.4368 28.3445 72.4849 28.4555 72.5693 28.5379C72.6525 28.6204 72.7652 28.6681 72.8835 28.6711H74.292C75.8805 28.6711 76.8395 27.6963 76.8395 26.1013C76.8395 24.5064 75.8505 23.5317 74.292 23.5317ZM74.232 27.7258H73.9925C73.8742 27.7228 73.7615 27.6752 73.6777 27.5928C73.5939 27.5103 73.5458 27.3994 73.543 27.2829V24.8904C73.5458 24.7738 73.5939 24.6629 73.6777 24.5804C73.7615 24.498 73.8742 24.4503 73.9925 24.4473H74.232C75.221 24.4473 75.7305 24.9495 75.7305 26.0718C75.7305 27.1942 75.221 27.7258 74.232 27.7258ZM82.2346 27.7554H80.7061C80.5872 27.7524 80.4751 27.7047 80.3913 27.6223C80.3075 27.5399 80.2594 27.4289 80.256 27.3123V26.9579C80.2594 26.8414 80.3075 26.7304 80.3913 26.6479C80.4751 26.5655 80.5872 26.5178 80.7061 26.5149H82.0245C82.144 26.5149 82.2578 26.4682 82.3427 26.3851C82.4265 26.302 82.474 26.1893 82.474 26.0718C82.474 25.9543 82.4265 25.8416 82.3427 25.7585C82.2578 25.6754 82.144 25.6287 82.0245 25.6287H80.7061C80.5872 25.6258 80.4751 25.5781 80.3913 25.4957C80.3075 25.4132 80.2594 25.3023 80.256 25.1857V24.8313C80.2594 24.7147 80.3075 24.6037 80.3913 24.5213C80.4751 24.4388 80.5872 24.3912 80.7061 24.3882H82.2046C82.3234 24.3882 82.4378 24.3416 82.5221 24.2585C82.6065 24.1753 82.6541 24.0627 82.6541 23.9452C82.6541 23.8277 82.6065 23.715 82.5221 23.6319C82.4378 23.5488 82.3234 23.5021 82.2046 23.5021H79.597C79.4787 23.5051 79.3661 23.5527 79.2823 23.6352C79.1985 23.7176 79.1504 23.8286 79.1475 23.9452V28.1984C79.1504 28.315 79.1985 28.426 79.2823 28.5084C79.3661 28.5909 79.4787 28.6385 79.597 28.6415H82.2346C82.3529 28.6385 82.465 28.5909 82.5488 28.5084C82.6325 28.426 82.6807 28.315 82.6841 28.1984C82.6852 28.1399 82.6744 28.0818 82.6524 28.0275C82.6297 27.9731 82.5969 27.9238 82.555 27.8824C82.5131 27.8411 82.4627 27.8085 82.4078 27.7866C82.3529 27.7648 82.2934 27.7542 82.2346 27.7554ZM89.0087 23.5317H88.7992C88.6809 23.5346 88.5682 23.5823 88.4845 23.6648C88.4007 23.7472 88.3526 23.8582 88.3497 23.9748V26.7216C88.3497 26.7511 88.3497 26.7511 88.3197 26.7511H88.2897L86.1917 23.7384C86.1509 23.6822 86.0972 23.6365 86.0343 23.6057C85.9715 23.5748 85.9018 23.5595 85.8322 23.5613H85.5503C85.432 23.5642 85.3193 23.6119 85.2361 23.6943C85.1517 23.7768 85.1036 23.8877 85.1008 24.0043V28.2575C85.1036 28.3741 85.1517 28.4851 85.2361 28.5675C85.3193 28.65 85.432 28.6976 85.5503 28.7006H85.7598C85.8786 28.6976 85.9907 28.65 86.0745 28.5675C86.1583 28.4851 86.2064 28.3741 86.2098 28.2575V25.4811C86.2098 25.4733 86.2127 25.4657 86.2183 25.4602C86.224 25.4547 86.2313 25.4516 86.2398 25.4516H86.2693L88.3973 28.4643C88.438 28.5206 88.4924 28.5662 88.5547 28.597C88.6175 28.628 88.6871 28.6432 88.7573 28.6415H89.0268C89.1451 28.6385 89.2578 28.5909 89.341 28.5084C89.4253 28.426 89.4735 28.3151 89.4763 28.1985V23.9452C89.4559 23.8349 89.3993 23.7344 89.3144 23.6596C89.2295 23.5847 89.1225 23.5397 89.0087 23.5317ZM18.2261 22.5953L19.6137 24.2257C19.7726 24.4089 19.9134 24.5595 19.9704 24.6452C20.3854 25.0576 20.6181 25.615 20.6177 26.1958C20.5788 26.881 20.1322 27.3477 19.7186 27.8469L18.7476 28.987L18.2411 29.5777C18.2229 29.5981 18.2112 29.6232 18.2073 29.6501C18.2035 29.677 18.2078 29.7044 18.2196 29.7289C18.2314 29.7534 18.2502 29.7739 18.2737 29.788C18.2972 29.8021 18.3244 29.8091 18.3519 29.8081H23.414C24.1873 29.8081 25.1613 30.4579 25.1044 31.4444C25.1028 31.8928 24.9213 32.3224 24.5996 32.6394C24.2779 32.9565 23.842 33.1353 23.3871 33.1369H15.4598C14.9382 33.1369 13.5356 33.193 13.143 31.9968C13.0595 31.7468 13.0481 31.4789 13.11 31.2229C13.2242 30.8444 13.4048 30.4885 13.6435 30.1714C14.0421 29.5807 14.4737 28.9899 14.8993 28.417C15.4477 27.6667 16.0112 26.9401 16.5657 26.1751C16.5854 26.1502 16.5961 26.1196 16.5961 26.088C16.5961 26.0564 16.5854 26.0258 16.5657 26.0009L14.5516 23.6379C14.5385 23.6208 14.5215 23.6069 14.502 23.5973C14.4825 23.5878 14.4611 23.5828 14.4393 23.5828C14.4175 23.5828 14.396 23.5878 14.3765 23.5973C14.357 23.6069 14.34 23.6208 14.3268 23.6379C13.7874 24.3557 11.4257 27.5338 10.9222 28.1777C10.4187 28.8216 9.17791 28.8571 8.49156 28.1777L5.34166 25.0616C5.32156 25.0417 5.29586 25.0281 5.2679 25.0227C5.23999 25.0172 5.211 25.02 5.18468 25.0307C5.1583 25.0415 5.13582 25.0597 5.12003 25.0831C5.10423 25.1064 5.09585 25.1339 5.09591 25.162V31.155C5.10327 31.5802 4.97556 31.9972 4.73043 32.3473C4.48536 32.6974 4.13527 32.9631 3.7292 33.1073C3.46977 33.1963 3.1925 33.2229 2.92049 33.1848C2.6485 33.1468 2.38971 33.0452 2.16565 32.8885C1.94159 32.7319 1.75877 32.5247 1.63244 32.2843C1.50614 32.0439 1.43996 31.7772 1.43945 31.5065V20.7316C1.45753 20.3432 1.59929 19.9704 1.84463 19.6661C2.08997 19.3617 2.42639 19.1413 2.80612 19.0362C3.13184 18.9507 3.47471 18.9515 3.79996 19.0387C4.12525 19.1258 4.42139 19.2961 4.6583 19.5324L9.50156 24.3114C9.51606 24.3259 9.5336 24.3371 9.55302 24.3442C9.57238 24.3512 9.5931 24.3541 9.61371 24.3524C9.63426 24.3507 9.65424 24.3446 9.67219 24.3344C9.69008 24.3242 9.70548 24.3104 9.71737 24.2937L13.158 19.6003C13.317 19.4098 13.5163 19.2558 13.7421 19.1492C13.9678 19.0425 14.2145 18.9858 14.4647 18.983H23.414C23.6589 18.9834 23.901 19.0353 24.1239 19.1353C24.3467 19.2353 24.5454 19.3811 24.7066 19.5628C24.8677 19.7446 24.9876 19.9581 25.0583 20.1892C25.129 20.4203 25.1488 20.6636 25.1164 20.9029C25.0533 21.3179 24.8396 21.6963 24.515 21.9678C24.1904 22.2394 23.7768 22.3857 23.351 22.3797H18.34C18.3148 22.3803 18.2902 22.3875 18.2688 22.4007C18.2475 22.4138 18.23 22.4324 18.2184 22.4543C18.2068 22.4764 18.2014 22.5011 18.2027 22.5258C18.204 22.5506 18.2121 22.5746 18.2261 22.5953Z" fill="white"/>
</g>
</g>
</g>
<defs>
<clipPath id="clip0_1_39785">
<rect width="88.88" height="50" fill="white" transform="translate(0.882812 0.879883)"/>
</clipPath>
<clipPath id="clip1_1_39785">
<rect width="88.88" height="50" fill="white" transform="translate(0.882812 0.879883)"/>
</clipPath>
<clipPath id="clip2_1_39785">
<rect width="88.88" height="15.2851" fill="white" transform="translate(0.882812 18.2373)"/>
</clipPath>
</defs>
</svg>
