<svg width="90" height="51" viewBox="0 0 90 51" fill="none" xmlns="http://www.w3.org/2000/svg">
<g clip-path="url(#clip0_1_39789)">
<g clip-path="url(#clip1_1_39789)">
<g clip-path="url(#clip2_1_39789)">
<path d="M3.66203 28.7354C3.66203 29.7649 3.88799 30.5552 4.18332 31.0334C4.57053 31.6597 5.14806 31.925 5.73684 31.925C6.49626 31.925 7.19098 31.7365 8.52981 29.8849C9.60236 28.4008 10.8662 26.3175 11.7165 25.0114L13.1567 22.7988C14.157 21.2622 15.3149 19.554 16.6424 18.3961C17.7262 17.4511 18.8954 16.926 20.072 16.926C22.0474 16.926 23.9291 18.0708 25.3692 20.2178C26.9452 22.5692 27.7102 25.5309 27.7102 28.5873C27.7102 30.4043 27.3521 31.7393 26.7427 32.7941C26.1539 33.8141 25.0063 34.8333 23.0759 34.8333V31.925C24.7288 31.925 25.1413 30.4061 25.1413 28.6679C25.1413 26.1909 24.5639 23.442 23.2915 21.4778C22.3887 20.0846 21.2186 19.2333 19.9314 19.2333C18.5391 19.2333 17.4187 20.2834 16.1596 22.1557C15.4902 23.1504 14.803 24.3627 14.0313 25.7305L13.1819 27.2354C11.4756 30.2608 11.0434 30.95 10.1902 32.0872C8.69482 34.0785 7.41787 34.8333 5.73684 34.8333C3.74266 34.8333 2.48166 33.9698 1.70068 32.6685C1.06314 31.6081 0.75 30.2167 0.75 28.6314L3.66203 28.7354Z" fill="white"/>
<path d="M3.04492 20.4231C4.38 18.3652 6.30667 16.926 8.51647 16.926C9.79626 16.926 11.0685 17.3048 12.397 18.3895C13.8502 19.5755 15.399 21.5285 17.3314 24.747L18.0242 25.9022C19.6968 28.6886 20.6484 30.122 21.2053 30.798C21.9216 31.6662 22.4232 31.925 23.0748 31.925C24.7277 31.925 25.1402 30.4061 25.1402 28.6679L27.7091 28.5873C27.7091 30.4043 27.351 31.7393 26.7415 32.7941C26.1528 33.8141 25.0052 34.8333 23.0748 34.8333C21.8747 34.8333 20.8116 34.5726 19.6359 33.4635C18.732 32.6122 17.6754 31.1 16.8625 29.7405L14.4446 25.7016C13.2314 23.6745 12.1185 22.1632 11.4744 21.4788C10.7816 20.7428 9.89095 19.854 8.4696 19.854C7.31922 19.854 6.3423 20.6612 5.52475 21.896L3.04492 20.4231Z" fill="white"/>
<path d="M8.47074 19.854C7.32037 19.854 6.34343 20.6612 5.52589 21.896C4.36989 23.6408 3.66203 26.2396 3.66203 28.7354C3.66203 29.7649 3.88799 30.5552 4.18332 31.0334L1.70068 32.6685C1.06314 31.6081 0.75 30.2167 0.75 28.6314C0.75 25.7484 1.54129 22.7435 3.04606 20.4231C4.38114 18.3652 6.30781 16.926 8.51762 16.926L8.47074 19.854ZM33.371 17.4922H36.7397L42.4671 27.854L48.1956 17.4922H51.4911V34.5182H48.7431V21.4693L43.7197 30.5055H41.1415L36.119 21.4693V34.5182H33.371V17.4922ZM60.1016 23.8404C58.1308 23.8404 56.9439 25.3236 56.6598 27.1603H63.3483C63.2105 25.2683 62.1191 23.8404 60.1016 23.8404ZM53.9353 28.2066C53.9353 24.342 56.4329 21.5293 60.1494 21.5293C63.8049 21.5293 65.9875 24.3064 65.9875 28.4128V29.1675H56.6598C56.9908 31.1655 58.3165 32.5118 60.4541 32.5118C62.1595 32.5118 63.2255 31.9914 64.2362 31.0398L65.6959 32.8277C64.3205 34.0925 62.5711 34.822 60.3566 34.822C56.3336 34.822 53.9353 31.8883 53.9353 28.2066ZM69.3196 24.0842H66.7901V21.834H69.3196V18.1129H71.971V21.834H75.814V24.0842H71.971V29.7873C71.971 31.7346 72.5935 32.4265 74.1236 32.4265C74.8221 32.4265 75.2224 32.3665 75.814 32.268V34.4938C75.0771 34.7019 74.374 34.7975 73.6127 34.7975C70.7503 34.7975 69.3196 33.2338 69.3196 30.1033V24.0842ZM86.9786 26.2724C86.4461 24.928 85.2583 23.9379 83.5122 23.9379C81.2434 23.9379 79.7911 25.5477 79.7911 28.17C79.7911 30.7267 81.128 32.4143 83.4035 32.4143C85.1926 32.4143 86.4694 31.3736 86.9786 30.0789V26.2724ZM89.63 34.5182H87.0267V32.7424C86.2999 33.7878 84.9758 34.822 82.8316 34.822C79.3832 34.822 77.0787 31.9352 77.0787 28.17C77.0787 24.3692 79.4385 21.5293 82.9779 21.5293C84.7275 21.5293 86.0997 22.2287 87.0267 23.4635V21.834H89.63V34.5182Z" fill="white"/>
</g>
</g>
</g>
<defs>
<clipPath id="clip0_1_39789">
<rect width="88.88" height="50" fill="white" transform="translate(0.75 0.879883)"/>
</clipPath>
<clipPath id="clip1_1_39789">
<rect width="88.88" height="50" fill="white" transform="translate(0.75 0.879883)"/>
</clipPath>
<clipPath id="clip2_1_39789">
<rect width="88.88" height="19.105" fill="white" transform="translate(0.75 16.3274)"/>
</clipPath>
</defs>
</svg>
