<svg width="90" height="51" viewBox="0 0 90 51" fill="none" xmlns="http://www.w3.org/2000/svg">
<g clip-path="url(#clip0_1_39795)">
<g clip-path="url(#clip1_1_39795)">
<g clip-path="url(#clip2_1_39795)">
<path d="M36.7822 26.6258C36.0803 26.2748 35.7294 25.9239 35.7294 25.4852C35.7294 24.9587 36.1681 24.6078 36.9577 24.6078C37.5719 24.6078 38.0983 24.7832 38.6248 24.9587L39.2389 23.0285C39.2389 23.0285 38.6248 22.5898 36.9577 22.5898C34.5888 22.5898 32.9217 23.9058 32.9217 25.8361C32.9217 26.889 33.7114 27.7664 34.6765 28.3806C35.4662 28.8193 35.8171 29.1702 35.8171 29.6966C35.8171 30.2231 35.3784 30.6618 34.5888 30.6618C33.4481 30.6618 32.3953 30.0476 32.3953 30.0476L31.6934 31.9779C31.6934 31.9779 32.6585 32.6798 34.4133 32.6798C36.87 32.6798 38.6248 31.4514 38.6248 29.3457C38.8002 28.0296 37.8351 27.2399 36.7822 26.6258ZM46.5213 22.5898C45.293 22.5898 44.3278 23.1162 43.6259 23.9936L44.6788 18.5537H41.9589L39.3267 32.4166H42.0466L42.924 27.6786C43.275 25.9239 44.2401 24.7832 45.1175 24.7832C45.7317 24.7832 45.9949 25.2219 45.9949 25.7484C45.9949 26.1871 45.9949 26.538 45.9071 26.9767L44.8543 32.4166H47.5742L48.6271 26.8012C48.7148 26.1871 48.8025 25.6606 48.8025 25.0465C48.7148 23.4672 47.9251 22.5898 46.5213 22.5898ZM54.8566 22.5898C51.6102 22.5898 49.4167 25.5729 49.4167 28.8193C49.4167 30.925 50.7328 32.592 53.1895 32.592C56.4359 32.592 58.5416 29.6966 58.5416 26.3626C58.6293 24.4323 57.4887 22.5898 54.8566 22.5898ZM53.5405 30.4863C52.5753 30.4863 52.2244 29.6966 52.2244 28.7315C52.2244 27.1522 53.014 24.6078 54.5056 24.6078C55.4707 24.6078 55.8217 25.3974 55.8217 26.2748C55.8217 27.9419 55.032 30.4863 53.5405 30.4863ZM65.5608 22.5898C63.7182 22.5898 62.6654 24.1691 62.6654 24.1691L62.8408 22.7652H60.4719L59.9454 26.3626L58.0152 36.2771H60.7351L61.5247 32.2411H61.6125C61.6125 32.2411 62.1389 32.592 63.1918 32.592C66.3504 32.592 68.4562 29.3457 68.4562 26.0116C68.3684 24.1691 67.491 22.5898 65.5608 22.5898ZM62.9286 30.574C62.4899 30.574 62.1389 30.3986 61.788 30.1353L62.2267 27.5909C62.5776 25.9239 63.455 24.7832 64.3324 24.7832C65.1221 24.7832 65.3853 25.5729 65.3853 26.2748C65.473 28.0296 64.5079 30.574 62.9286 30.574ZM72.229 18.6415C71.7903 18.6415 71.4393 18.817 71.0883 19.0802C70.7374 19.3434 70.6496 19.7821 70.6496 20.2208C70.6496 21.0104 71.1761 21.5369 71.9657 21.5369C72.8431 21.5369 73.545 20.9227 73.545 20.0453V19.9576C73.6328 19.2557 73.0186 18.6415 72.229 18.6415ZM68.4562 32.4166H71.1761L73.0186 22.7652H70.2987M79.95 22.7652H78.0197L78.1075 22.3265C78.283 21.3614 78.8094 20.5718 79.6868 20.5718C79.95 20.5718 80.301 20.6595 80.5642 20.6595L81.0906 18.5537C81.0906 18.5537 80.5642 18.2905 79.5991 18.2905C78.6339 18.2905 77.6688 18.5537 76.9669 19.1679C76.0017 19.9576 75.563 21.0982 75.3876 22.2388L75.2998 22.6775H74.0715L73.6328 24.6955H74.8611L73.4573 32.4166H76.1772L77.5811 24.7832H79.4236L79.95 22.7652ZM86.4427 22.7652L83.986 29.4334L83.2841 22.853H80.3887L82.0558 31.7147C82.0558 31.8901 82.0558 32.0656 81.968 32.1534C81.6171 32.7675 81.0906 33.3817 80.4765 33.8204C80.0378 34.1714 79.5113 34.4346 78.9849 34.6101L79.7745 36.8913C80.7397 36.6281 81.7048 36.1016 82.4067 35.3997C83.6351 34.2591 84.7757 32.4166 86.004 29.9599L89.3381 22.853L86.4427 22.7652Z" fill="white"/>
<path d="M25.0251 16.2725C25.0251 16.097 24.8496 16.0093 24.7619 16.0093C24.6742 16.0093 22.2175 15.8338 22.2175 15.8338L20.3749 13.9913C20.1995 13.8158 19.8485 13.9036 19.673 13.9036C19.673 13.9036 19.3221 13.9913 18.7079 14.1668C18.2692 12.5875 17.3041 11.1836 15.5493 11.1836H15.3738C14.8473 10.5695 14.2332 10.2185 13.7945 10.2185C9.75846 10.2185 7.8282 15.2197 7.21402 17.8518L4.40636 18.7292C3.52897 18.9924 3.52897 18.9924 3.35349 19.8698L1.07227 38.0319L18.7956 41.366L28.447 39.2602C28.447 39.2602 25.0251 16.448 25.0251 16.2725ZM14.8473 12.412C15.1106 13.2894 15.286 14.1668 15.286 15.1319V15.3074L12.2152 16.2725C12.7416 13.9913 13.8822 12.8507 14.8473 12.412ZM13.7067 11.2714C13.8822 11.2714 14.0577 11.3591 14.2332 11.4469C12.9171 12.061 11.601 13.5526 10.9868 16.6235L8.44237 17.4131C9.14429 15.1319 10.8113 11.2714 13.7067 11.2714ZM15.5493 21.3614L14.3209 24.871C13.619 24.52 12.8293 24.3445 12.0397 24.3445C10.1972 24.3445 10.1094 25.4852 10.1094 25.8361C10.1094 27.4154 14.3209 28.0296 14.3209 31.8024C14.3209 34.7855 12.3906 36.7158 9.93394 36.7158C6.86307 36.7158 5.28376 34.7855 5.28376 34.7855L6.07341 32.0656C6.07341 32.0656 7.65272 33.4694 9.05655 33.4694C9.75846 33.4694 10.2849 32.943 10.2849 32.3288C10.2849 32.3288 10.2849 32.3288 10.2849 32.2411C10.2849 30.1353 6.86306 30.0476 6.86306 26.6258C6.86306 23.7304 8.96881 20.9227 13.1803 20.9227C14.7596 20.9227 15.5493 21.3614 15.5493 21.3614ZM16.3389 14.9564V14.6932C16.3389 13.9036 16.2512 13.0262 15.988 12.2365C16.8654 12.412 17.4795 13.3771 17.8305 14.5177C17.3918 14.6932 16.8654 14.781 16.3389 14.9564Z" fill="white"/>
</g>
</g>
</g>
<defs>
<clipPath id="clip0_1_39795">
<rect width="88.88" height="50" fill="white" transform="translate(0.632812 0.879883)"/>
</clipPath>
<clipPath id="clip1_1_39795">
<rect width="88.88" height="50" fill="white" transform="translate(0.632812 0.879883)"/>
</clipPath>
<clipPath id="clip2_1_39795">
<rect width="88.88" height="31.6739" fill="white" transform="translate(0.632812 10.043)"/>
</clipPath>
</defs>
</svg>
