<svg width="90" height="51" viewBox="0 0 90 51" fill="none" xmlns="http://www.w3.org/2000/svg">
<g clip-path="url(#clip0_1_39800)">
<g clip-path="url(#clip1_1_39800)">
<g clip-path="url(#clip2_1_39800)">
<path fill-rule="evenodd" clip-rule="evenodd" d="M77.1581 28.3582H68.3973C68.6038 30.456 70.1364 31.1299 71.8755 31.1299C73.6581 31.1299 75.0929 30.7277 76.2777 30.0973V33.706C74.7742 34.5711 73.0538 34.9861 71.3212 34.9016C66.9625 34.9016 63.8972 32.1843 63.8972 26.7712C63.8972 22.2169 66.4951 18.5973 70.7451 18.5973C75.0059 18.5973 77.2233 22.1625 77.2233 26.7495C77.2233 27.1843 77.1799 28.119 77.1581 28.3582ZM70.7233 22.2495C69.6038 22.2495 68.3646 23.0429 68.3646 25.0538H72.9842C72.9842 23.0429 71.8212 22.2495 70.7233 22.2495ZM56.8429 34.9016C55.2777 34.9016 54.3212 34.2495 53.6907 33.7712L53.669 38.8038L49.1907 39.7495V18.8908H53.2777L53.3646 19.9995C54.3126 19.1003 55.569 18.5985 56.8755 18.5973C60.0277 18.5973 62.9842 21.4234 62.9842 26.6408C62.9842 32.3256 60.0494 34.9016 56.8429 34.9016ZM55.8103 22.5647C54.7777 22.5647 54.1364 22.9343 53.669 23.4451L53.6907 30.0973C54.1255 30.5756 54.7559 30.9451 55.8103 30.9451C57.4625 30.9451 58.5712 29.1516 58.5712 26.7386C58.5712 24.4016 57.4407 22.5647 55.8103 22.5647ZM43.0277 18.8908H47.5168V34.5864H43.0277V18.8908ZM43.0277 13.7821L47.5168 12.8364V16.4886L43.0277 17.4451V13.7821ZM38.332 23.9451V34.5864H33.8538V18.8908H37.8755L38.0059 20.2169C39.0929 18.2929 41.3429 18.6843 41.9407 18.8908V23.0103C41.3755 22.8256 39.4516 22.5429 38.332 23.9451ZM29.0386 29.0756C29.0386 31.7169 31.8646 30.9016 32.4299 30.6625V34.3147C31.832 34.6408 30.7559 34.9016 29.2886 34.9016C28.6769 34.9195 28.0681 34.8127 27.4991 34.5878C26.9301 34.3629 26.4128 34.0247 25.9787 33.5936C25.5444 33.1625 25.2026 32.6475 24.9737 32.0801C24.7447 31.5127 24.6338 30.9047 24.6472 30.2929L24.6581 15.9777L29.0277 15.0429V18.8908H32.4407V22.7277H29.0386V29.0864V29.0756ZM23.7016 29.8364C23.7016 33.0647 21.1907 34.9016 17.4733 34.9016C15.8052 34.9003 14.1551 34.5563 12.6255 33.8908V29.619C14.1255 30.4343 15.9951 31.0429 17.4733 31.0429C18.4733 31.0429 19.1364 30.7821 19.1364 29.956C19.1364 27.8038 12.332 28.6082 12.332 23.6516C12.332 20.4886 14.8103 18.5973 18.4407 18.5973C19.919 18.5973 21.3972 18.8147 22.8864 19.4125V23.6299C21.5102 22.9057 19.9846 22.5112 18.4299 22.4777C17.4951 22.4777 16.8646 22.7495 16.8646 23.456C16.8646 25.4669 23.7016 24.5103 23.7016 29.8473V29.8364Z" fill="white"/>
</g>
</g>
</g>
<defs>
<clipPath id="clip0_1_39800">
<rect width="88.88" height="50" fill="white" transform="translate(0.5 0.879883)"/>
</clipPath>
<clipPath id="clip1_1_39800">
<rect width="88.88" height="50" fill="white" transform="translate(0.5 0.879883)"/>
</clipPath>
<clipPath id="clip2_1_39800">
<rect width="65.2174" height="50" fill="white" transform="translate(12.332 0.879883)"/>
</clipPath>
</defs>
</svg>
