<svg width="101" height="31" viewBox="0 0 101 31" fill="none" xmlns="http://www.w3.org/2000/svg">
<g clip-path="url(#clip0_1_39970)">
<g clip-path="url(#clip1_1_39970)">
<g clip-path="url(#clip2_1_39970)">
<mask id="mask0_1_39970" style="mask-type:luminance" maskUnits="userSpaceOnUse" x="0" y="4" width="101" height="23">
<path d="M100.881 4.3689H0.880859V26.5911H100.881V4.3689Z" fill="white"/>
</mask>
<g mask="url(#mask0_1_39970)">
<path d="M28.5802 9.76006V11.2926H25.5282V21.2129H23.6476V11.2926H20.5792V9.76006H28.5802ZM31.1108 10.9301C30.7698 10.9301 30.4839 10.8147 30.2529 10.584C30.0219 10.3533 29.9065 10.0677 29.9065 9.72713C29.9065 9.38656 30.0219 9.10093 30.2529 8.87022C30.4839 8.63952 30.7698 8.52417 31.1108 8.52417C31.4407 8.52417 31.7211 8.63952 31.9521 8.87022C32.183 9.10093 32.2985 9.38656 32.2985 9.72713C32.2985 10.0677 32.183 10.3533 31.9521 10.584C31.7211 10.8147 31.4407 10.9301 31.1108 10.9301ZM32.0346 12.133V21.2129H30.1539V12.133H32.0346ZM36.0536 13.4681C36.3725 13.0506 36.807 12.6991 37.3569 12.4135C37.9067 12.1278 38.5281 11.985 39.221 11.985C40.0129 11.985 40.7332 12.1827 41.3821 12.5782C42.042 12.9627 42.5589 13.5066 42.9328 14.2096C43.3067 14.9127 43.4937 15.7202 43.4937 16.6321C43.4937 17.5439 43.3067 18.3623 42.9328 19.0874C42.5589 19.8015 42.042 20.3617 41.3821 20.7682C40.7332 21.1637 40.0129 21.3615 39.221 21.3615C38.5281 21.3615 37.9123 21.2242 37.3734 20.9495C36.8345 20.6639 36.3945 20.3123 36.0536 19.8948V25.5306H34.173V12.1333H36.0536V13.4681ZM41.5801 16.6321C41.5801 16.0058 41.4481 15.4675 41.1841 15.0171C40.9312 14.5557 40.5903 14.2096 40.1614 13.979C39.7434 13.7372 39.2925 13.6164 38.8086 13.6164C38.3357 13.6164 37.8848 13.7372 37.4559 13.979C37.0379 14.2206 36.697 14.5722 36.433 15.0336C36.1801 15.495 36.0536 16.0388 36.0536 16.665C36.0536 17.2912 36.1801 17.8405 36.433 18.3129C36.697 18.7743 37.0379 19.1258 37.4559 19.3675C37.8848 19.6092 38.3357 19.7301 38.8086 19.7301C39.2925 19.7301 39.7434 19.6092 40.1614 19.3675C40.5903 19.1148 40.9312 18.7523 41.1841 18.28C41.4481 17.8075 41.5801 17.2582 41.5801 16.6321ZM46.9043 19.6968H50.7811V21.2129H45.0236V9.76006H46.9043V19.6968ZM52.9814 10.9301C52.6405 10.9301 52.3545 10.8147 52.1236 10.584C51.8926 10.3533 51.7771 10.0677 51.7771 9.72713C51.7771 9.38656 51.8926 9.10093 52.1236 8.87022C52.3545 8.63952 52.6405 8.52417 52.9814 8.52417C53.3114 8.52417 53.5918 8.63952 53.8228 8.87022C54.0537 9.10093 54.1692 9.38656 54.1692 9.72713C54.1692 10.0677 54.0537 10.3533 53.8228 10.584C53.5918 10.8147 53.3114 10.9301 52.9814 10.9301ZM53.9053 12.133V21.2129H52.0246V12.133H53.9053ZM60.6297 11.985C61.3447 11.985 61.9825 12.1333 62.5436 12.4299C63.1153 12.7266 63.5609 13.166 63.8798 13.7482C64.1986 14.3305 64.3581 15.0336 64.3581 15.8575V21.2132H62.4942V16.1377C62.4942 15.3247 62.2903 14.704 61.8836 14.2756C61.4764 13.8361 60.9214 13.6164 60.2175 13.6164C59.5136 13.6164 58.9525 13.8361 58.5348 14.2756C58.1281 14.704 57.9242 15.3247 57.9242 16.1377V21.2132H56.0436V12.1333H57.9242V13.1715C58.2325 12.798 58.6225 12.5068 59.0959 12.2981C59.5798 12.0893 60.0909 11.985 60.6297 11.985ZM70.0242 16.6811L74.2142 21.2128H71.6736L68.3081 17.3073V21.2128H66.4275V9.01842H68.3081V16.1043L71.6075 12.1329H74.2142L70.0242 16.6811ZM2.08882 5.57554C0.478207 7.18439 0.478206 9.79285 2.08881 11.4017L5.4689 14.7781L6.63542 13.6128L3.25533 10.2365C2.28896 9.27115 2.28896 7.70607 3.25533 6.74077C4.22169 5.77546 5.78848 5.77546 6.75486 6.74077L13.7539 13.7322C14.7202 14.6975 14.7202 16.2626 13.7539 17.2278C12.7875 18.1932 11.2207 18.1932 10.2544 17.2278L9.19119 16.1658L8.02469 17.3311L9.08786 18.3931C10.6985 20.002 13.3098 20.002 14.9204 18.3931C16.531 16.7842 16.531 14.1758 14.9204 12.567L7.92136 5.57554C6.31074 3.96668 3.69943 3.96668 2.08882 5.57554Z" fill="white"/>
<path d="M6.17159 15.4799L2.08882 19.5582C0.478207 21.167 0.478208 23.7755 2.08882 25.3844C3.69943 26.9932 6.31074 26.9932 7.92136 25.3844L12.5901 20.7207C11.8757 20.8 11.1482 20.7338 10.4557 20.5223L6.75486 24.2191C5.78848 25.1844 4.22169 25.1844 3.25532 24.2191C2.28896 23.2538 2.28896 21.6888 3.25532 20.7234L10.2544 13.732C10.5975 13.3893 11.0162 13.1683 11.4569 13.0689L10.1736 11.7869C9.78169 11.9808 9.41425 12.2408 9.08786 12.5668L7.33808 14.3146L7.3353 14.3119L6.1688 15.4771L6.17159 15.4799Z" fill="white"/>
</g>
</g>
</g>
</g>
<defs>
<clipPath id="clip0_1_39970">
<rect width="100" height="30" fill="white" transform="translate(0.880859 0.47998)"/>
</clipPath>
<clipPath id="clip1_1_39970">
<rect width="100" height="30" fill="white" transform="translate(0.880859 0.47998)"/>
</clipPath>
<clipPath id="clip2_1_39970">
<rect width="100" height="22.2222" fill="white" transform="translate(0.880859 4.3689)"/>
</clipPath>
</defs>
</svg>
